<svg width="15" height="18" viewBox="0 0 15 18" fill="none" xmlns="http://www.w3.org/2000/svg">
<path fill-rule="evenodd" clip-rule="evenodd" d="M11.1227 1.04368C11.9685 1.52028 12.6851 2.18003 13.2149 2.96974C13.7446 3.75945 14.0726 4.657 14.1724 5.59C14.4712 7.6644 14.1957 9.77736 13.3736 11.7185C12.5514 13.6596 11.2112 15.3613 9.48624 16.6539C8.68832 17.276 7.72562 17.675 6.70483 17.8066C5.68405 17.9383 4.64505 17.7975 3.70292 17.3998C2.61582 16.8297 1.75865 15.9298 1.26687 14.8425C1.26687 14.7359 1.15529 14.6294 1.1181 14.5228C1.0809 14.4163 1.1181 14.3275 1.00653 14.2032L0.801969 13.5638C0.339085 11.3925 0.518368 9.14088 1.31976 7.06132C2.12115 4.98176 3.51297 3.15635 5.33934 1.78956C6.10425 1.26189 6.96966 0.881868 7.887 0.670755C8.97848 0.438114 10.1205 0.569725 11.1227 1.04368ZM10.1743 1.68301C9.82096 1.94939 9.72799 3.28133 9.59781 3.79634C9.11428 5.59469 8.10869 7.22605 6.69686 8.50251C6.45511 8.71562 6.19475 8.91095 5.95301 9.14182C4.82368 10.1849 4.15783 11.603 4.09342 13.1021C4.10026 13.7538 4.18133 14.4029 4.33518 15.0378C4.33518 15.4285 4.63272 16.6894 4.93026 16.8137C5.22779 16.9381 5.30216 16.0501 5.32076 15.8548C5.43417 13.9214 6.15332 12.0653 7.3849 10.527C7.81776 10.0256 8.29023 9.55654 8.79818 9.12407C9.64192 8.40549 10.2808 7.49405 10.6548 6.47522C11.0289 5.45638 11.1259 4.36352 10.9367 3.29909C10.9367 2.96167 10.8251 2.67752 10.7507 2.37561L10.602 1.94941C10.4532 1.91389 10.3602 1.71853 10.1743 1.68301Z" fill="black"/>
</svg>
