<svg width="665" height="180" viewBox="0 0 665 180" fill="none" xmlns="http://www.w3.org/2000/svg">
<g id="Group 9">
<g id="icon1">
<path id="Vector" d="M52.4721 52.2502H27.3906V68.3506H52.4721V52.2502Z" fill="#F8BF64"/>
<path id="Vector_2" fill-rule="evenodd" clip-rule="evenodd" d="M41.7185 43.2108H38.1445L34.9535 37.7379H45.101L41.7185 43.2108ZM47.941 36.149C47.8485 35.957 47.7105 35.7965 47.5419 35.6845C47.3732 35.5726 47.1803 35.5134 46.9837 35.5134H32.8794C32.6827 35.5134 32.4898 35.5726 32.3212 35.6845C32.1525 35.7965 32.0145 35.957 31.922 36.149C31.8298 36.3326 31.7814 36.5392 31.7814 36.7492C31.7814 36.9593 31.8298 37.1659 31.922 37.3495L36.6128 45.1527C36.7134 45.3127 36.8469 45.4441 37.0021 45.5362C37.1574 45.6282 37.3302 45.6783 37.5063 45.6824H42.2291C42.4052 45.6783 42.5779 45.6282 42.7332 45.5362C42.8885 45.4441 43.0219 45.3127 43.1225 45.1527L47.8134 37.3495C47.9435 37.167 48.0245 36.9477 48.0471 36.7166C48.0697 36.4855 48.0329 36.2521 47.941 36.0431V36.149Z" fill="#F8BF64"/>
<path id="Vector_3" fill-rule="evenodd" clip-rule="evenodd" d="M29.5606 43.2113L32.7516 38.586L35.5278 43.2113H29.5606ZM38.4636 43.7409L33.7408 35.9379C33.6568 35.7768 33.5358 35.643 33.3902 35.55C33.2445 35.457 33.0793 35.4082 32.9111 35.4083C32.74 35.4013 32.5699 35.4393 32.4146 35.5191C32.2593 35.5989 32.1233 35.7182 32.0176 35.8673L26.561 43.6703C26.4525 43.854 26.3948 44.0687 26.3948 44.2882C26.3948 44.5076 26.4525 44.7223 26.561 44.906C26.652 45.1022 26.7887 45.2678 26.9571 45.3858C27.1254 45.5037 27.3191 45.5697 27.5183 45.5769H37.6977C37.8896 45.5744 38.0773 45.5138 38.2404 45.4018C38.4035 45.2898 38.5359 45.1306 38.6231 44.9414C38.6953 44.7436 38.7185 44.5282 38.6905 44.3172C38.6625 44.1062 38.5842 43.9073 38.4636 43.7409Z" fill="#F8BF64"/>
<path id="Vector_4" fill-rule="evenodd" clip-rule="evenodd" d="M44.2712 43.2113L47.0474 38.586L50.2384 43.2113H44.2712ZM53.3019 43.6703L47.8452 35.8673C47.7395 35.7182 47.6035 35.5989 47.4482 35.5191C47.2929 35.4393 47.1228 35.4013 46.9517 35.4083C46.7835 35.4082 46.6184 35.457 46.4727 35.55C46.3271 35.643 46.2061 35.7768 46.1221 35.9379L41.3993 43.7409C41.3041 43.9234 41.2539 44.1304 41.2539 44.3411C41.2539 44.5519 41.3041 44.7589 41.3993 44.9414C41.4865 45.1306 41.6189 45.2898 41.782 45.4018C41.9451 45.5138 42.1328 45.5744 42.3247 45.5769H52.5041C52.7033 45.5697 52.897 45.5037 53.0653 45.3858C53.2337 45.2678 53.3704 45.1022 53.4614 44.906C53.5475 44.7055 53.5783 44.4814 53.5499 44.2616C53.5215 44.0418 53.4353 43.8361 53.3019 43.6703Z" fill="#F8BF64"/>
<path id="Vector_5" fill-rule="evenodd" clip-rule="evenodd" d="M51.4192 67.1851H28.4437V45.7529H51.4192V67.1851ZM52.4722 43.2107H27.3907C27.1115 43.2107 26.8435 43.3335 26.6461 43.552C26.4486 43.7705 26.3376 44.0669 26.3376 44.3759V68.3503C26.3375 68.6627 26.4475 68.9628 26.6441 69.1869C26.8407 69.4111 27.1086 69.5416 27.3907 69.5508H52.4722C52.7544 69.5416 53.0222 69.4111 53.2188 69.1869C53.4155 68.9628 53.5254 68.6627 53.5253 68.3503V44.3759C53.5253 44.0669 53.4143 43.7705 53.2168 43.552C53.0193 43.3335 52.7515 43.2107 52.4722 43.2107Z" fill="#F8BF64"/>
<path id="Vector_6" fill-rule="evenodd" clip-rule="evenodd" d="M38.4956 101.046C38.547 101.068 38.6039 101.068 38.6552 101.046H38.9105H39.1658H39.3891C39.7288 101.081 40.0706 101.081 40.4103 101.046H40.6975H40.9528H41.1761C41.206 101.061 41.2387 101.07 41.2718 101.07C41.3049 101.07 41.3376 101.061 41.3675 101.046C41.5436 100.977 41.6985 100.855 41.8143 100.693L49.5367 92.0775C49.7919 91.8164 49.9955 91.4996 50.1348 91.1472C50.2741 90.7948 50.3459 90.4143 50.3459 90.0297C50.3459 89.645 50.2741 89.2645 50.1348 88.9121C49.9955 88.5597 49.7919 88.243 49.5367 87.9818C49.0324 87.4783 48.3708 87.2115 47.692 87.2379C47.0131 87.2642 46.37 87.5816 45.8989 88.123L42.7078 91.6538V77.9543C42.7078 77.1865 42.4321 76.4501 41.9414 75.9071C41.4507 75.3641 40.7851 75.0591 40.0912 75.0591C39.3972 75.0591 38.7316 75.3641 38.2409 75.9071C37.7502 76.4501 37.4745 77.1865 37.4745 77.9543V91.6538L34.2835 88.123C33.7779 87.5837 33.103 87.2823 32.4008 87.2823C31.6985 87.2823 31.0236 87.5837 30.5181 88.123C30.0483 88.6926 29.7867 89.4351 29.7842 90.2062C29.787 90.9563 30.0497 91.6766 30.5181 92.2188L38.3042 100.834C38.3571 100.916 38.4218 100.987 38.4956 101.046Z" fill="#F8BF64"/>
<path id="Vector_7" fill-rule="evenodd" clip-rule="evenodd" d="M59.9391 164.706H18.8386C12.6161 145.357 11.4674 118.029 11.244 110.579H67.5019C67.3104 118.029 66.1617 145.357 59.9391 164.706ZM70.5334 107.26C70.3697 107.08 70.1755 106.937 69.962 106.84C69.7484 106.743 69.5197 106.694 69.2888 106.695H9.45698C8.99342 106.707 8.55033 106.909 8.21252 107.26C8.05257 107.442 7.92767 107.657 7.84539 107.894C7.76311 108.131 7.72518 108.384 7.73389 108.637C7.73389 108.637 7.73391 117.605 8.85077 129.186C9.78989 142.174 12.18 154.982 15.9667 167.319C16.1004 167.685 16.3298 167.998 16.6255 168.218C16.9212 168.438 17.2697 168.555 17.6261 168.555H61.1518C61.5048 168.558 61.8502 168.441 62.1413 168.22C62.4323 167.999 62.655 167.685 62.7792 167.319C66.5963 154.991 68.9873 142.179 69.8952 129.186C70.9482 117.605 71.044 108.743 71.044 108.637C71.0328 108.124 70.851 107.634 70.5334 107.26Z" fill="#F8BF64"/>
<path id="Vector_8" fill-rule="evenodd" clip-rule="evenodd" d="M85.6903 138.719L66.8313 151.677C67.1504 150.018 67.4376 148.323 67.7248 146.558L83.9034 135.506C85.6391 134.252 86.9139 132.355 87.4987 130.155C88.0836 127.954 87.9402 125.595 87.0944 123.501C86.6082 122.261 85.8892 121.15 84.9853 120.241C84.0813 119.332 83.013 118.646 81.8512 118.229C80.6894 117.811 79.4607 117.672 78.2466 117.82C77.0325 117.968 75.8606 118.4 74.8089 119.088L70.3095 122.018C70.3095 120.465 70.501 118.911 70.5649 117.393L73.0539 115.804C75.8044 113.973 79.0995 113.427 82.2144 114.284C85.3292 115.142 88.0086 117.333 89.6632 120.377C91.3177 123.42 91.8118 127.066 91.0368 130.512C90.2619 133.959 88.2813 136.924 85.5308 138.754L85.6903 138.719ZM93.4445 120.394C92.5627 118.182 91.2699 116.199 89.6502 114.576C88.0305 112.953 86.1202 111.725 84.0434 110.972C81.9666 110.22 79.7699 109.959 77.5962 110.208C75.4224 110.456 73.3203 111.208 71.4264 112.415L68.2354 114.568C67.9914 114.734 67.7863 114.961 67.6366 115.231C67.4869 115.501 67.3968 115.806 67.3738 116.122C67.3738 119.158 67.0547 122.266 66.7994 125.337C66.7689 125.699 66.8305 126.062 66.9771 126.387C67.1237 126.711 67.3496 126.984 67.6291 127.173C67.9033 127.357 68.2179 127.454 68.5385 127.454C68.8592 127.454 69.1737 127.357 69.448 127.173L76.8193 122.371C77.4483 121.97 78.1464 121.718 78.8686 121.633C79.5908 121.548 80.3211 121.631 81.0125 121.877C81.7039 122.123 82.341 122.527 82.8829 123.062C83.4248 123.597 83.8593 124.252 84.1586 124.984C84.6344 126.234 84.6935 127.63 84.3253 128.924C83.9571 130.217 83.1855 131.324 82.1482 132.046L65.3315 143.592C65.1145 143.724 64.9291 143.911 64.7904 144.138C64.6517 144.366 64.5637 144.626 64.5338 144.898C63.9275 148.429 63.2893 151.96 62.5553 155.137C62.4736 155.514 62.4935 155.909 62.6126 156.273C62.7317 156.637 62.9448 156.954 63.2254 157.185C63.5313 157.433 63.8995 157.569 64.2785 157.574C64.5994 157.576 64.9126 157.465 65.172 157.256L87.5092 141.897C90.7097 139.73 93.1011 136.365 94.2489 132.412C95.3967 128.46 95.2245 124.183 93.7636 120.359L93.4445 120.394Z" fill="#F8BF64"/>
<path id="Vector_9" fill-rule="evenodd" clip-rule="evenodd" d="M54.1316 175.581H25.7314C18.8299 175.561 12.1173 173.085 6.58518 168.519H73.5969C68.0648 173.085 61.3522 175.561 54.4507 175.581H54.1316ZM79.979 165.871C79.8535 165.509 79.6295 165.199 79.338 164.984C79.0465 164.769 78.7018 164.659 78.3516 164.67H1.76679C1.41655 164.659 1.07183 164.769 0.780299 164.984C0.488768 165.199 0.26479 165.509 0.139326 165.871C0.00199325 166.225 -0.0348954 166.618 0.0334716 166.996C0.101839 167.374 0.27223 167.721 0.522235 167.989C7.2193 175.359 16.2861 179.487 25.7314 179.465H54.1316C63.5768 179.487 72.6437 175.359 79.3408 167.989C79.6042 167.715 79.7829 167.356 79.8516 166.963C79.9203 166.57 79.8756 166.164 79.7237 165.8L79.979 165.871Z" fill="#F8BF64"/>
<path id="Vector_10" fill-rule="evenodd" clip-rule="evenodd" d="M77.9689 166.119C77.8395 165.787 77.626 165.503 77.3542 165.303C77.0824 165.102 76.7639 164.993 76.4373 164.989H3.42642C3.09632 164.995 2.77509 165.108 2.50246 165.315C2.22982 165.521 2.0177 165.81 1.89216 166.148C1.76662 166.486 1.73322 166.857 1.79604 167.216C1.85887 167.575 2.01522 167.905 2.24576 168.166C8.64302 175.216 17.3091 179.166 26.338 179.147H53.5257C62.5546 179.166 71.2207 175.216 77.6179 168.166C77.8572 167.905 78.0189 167.569 78.0816 167.203C78.1443 166.837 78.1049 166.459 77.9689 166.119Z" fill="#F8BF64"/>
</g>
<g id="icon2">
<path id="Vector_11" fill-rule="evenodd" clip-rule="evenodd" d="M276.337 17.4277C275.889 16.6181 275.234 15.9735 274.455 15.5754C273.676 15.1774 272.808 15.0436 271.96 15.1912C271.112 15.3387 270.323 15.7608 269.692 16.4043C269.061 17.0477 268.617 17.8837 268.415 18.8065C268.213 19.7293 268.262 20.6976 268.558 21.5891C268.853 22.4807 269.38 23.2555 270.073 23.8157C270.766 24.3759 271.593 24.6964 272.45 24.7366C273.308 24.7769 274.157 24.5352 274.89 24.042C275.378 23.7136 275.803 23.2818 276.14 22.7714C276.477 22.2609 276.72 21.6818 276.854 21.0673C276.989 20.4528 277.012 19.815 276.924 19.1905C276.835 18.5659 276.635 17.9669 276.337 17.4277Z" fill="#F8BF64"/>
<path id="Vector_12" d="M318.717 60.874L284.108 84.2679C280.475 86.6841 276.128 87.4214 272.007 86.3205C267.886 85.2197 264.322 82.3691 262.085 78.3846V78.1757C257.018 69.0318 255.429 58.041 257.663 47.6043C259.897 37.1677 265.774 28.1337 274.009 22.476H274.198C282.488 16.8919 292.441 15.1707 301.876 17.6893C311.311 20.2079 319.46 26.761 324.537 35.9136L324.915 36.575C326.968 40.6035 327.531 45.3551 326.487 49.8333C325.443 54.3116 322.873 58.1686 319.315 60.5955L318.717 60.874ZM282.409 81.0303L317.364 57.358C320.21 55.3947 322.244 52.2718 323.027 48.6634C323.81 45.0551 323.279 41.2508 321.548 38.0719L321.391 37.8282C316.779 29.5656 309.402 23.6554 300.868 21.3861C292.334 19.1167 283.335 20.6723 275.834 25.7135C268.355 30.8235 263.007 38.9988 260.956 48.4554C258.905 57.9121 260.317 67.8826 264.885 76.1914V76.4003C265.746 77.9855 266.884 79.365 268.232 80.4582C269.581 81.5514 271.112 82.3364 272.738 82.7674C274.364 83.1985 276.05 83.2668 277.7 82.9686C279.35 82.6703 280.929 82.0114 282.346 81.0303H282.409Z" fill="#F8BF64"/>
<path id="Vector_13" fill-rule="evenodd" clip-rule="evenodd" d="M250.066 164.754H209.574C203.282 145.677 202.275 118.732 202.086 111.387H257.554C257.334 118.732 256.233 145.677 250.066 164.754ZM260.543 108.114C260.21 107.768 259.773 107.569 259.316 107.557H200.324C200.097 107.556 199.871 107.605 199.661 107.7C199.45 107.796 199.259 107.937 199.097 108.114C198.784 108.483 198.605 108.966 198.594 109.472C198.594 109.472 198.594 118.314 199.727 129.733C200.622 142.543 202.979 155.176 206.743 167.33C206.865 167.691 207.085 168.001 207.372 168.219C207.659 168.437 207.999 168.552 208.347 168.549H251.293C251.641 168.552 251.982 168.437 252.269 168.219C252.556 168.001 252.775 167.691 252.898 167.33C256.661 155.176 259.019 142.543 259.914 129.733C260.952 118.314 261.047 109.576 261.047 109.472C261.036 108.966 260.856 108.483 260.543 108.114Z" fill="#F8BF64"/>
<path id="Vector_14" fill-rule="evenodd" clip-rule="evenodd" d="M275.488 139.132L256.862 151.908C257.177 150.272 257.491 148.601 257.775 146.86L273.695 135.964C275.444 134.765 276.744 132.908 277.356 130.734C277.969 128.56 277.853 126.215 277.03 124.128C276.546 122.909 275.835 121.818 274.943 120.925C274.052 120.031 272.999 119.357 271.855 118.946C270.711 118.535 269.501 118.397 268.306 118.54C267.11 118.683 265.955 119.104 264.917 119.776L260.48 122.666C260.48 121.134 260.669 119.602 260.732 118.105L263.186 116.539C264.64 115.594 266.257 115.001 267.933 114.797C269.608 114.593 271.304 114.783 272.908 115.355C275.071 116.14 276.987 117.591 278.43 119.539C279.874 121.487 280.784 123.85 281.055 126.351C281.326 128.852 280.946 131.387 279.96 133.657C278.974 135.927 277.422 137.839 275.488 139.167V139.132ZM283.291 121.064C282.418 118.877 281.139 116.918 279.537 115.314C277.935 113.71 276.045 112.497 273.991 111.755C271.937 111.013 269.765 110.758 267.616 111.006C265.467 111.254 263.39 112.001 261.519 113.197L258.372 115.32C258.126 115.477 257.92 115.699 257.772 115.967C257.623 116.234 257.538 116.539 257.523 116.852C257.523 119.846 257.208 122.91 256.957 125.938C256.926 126.287 256.984 126.639 257.122 126.954C257.26 127.27 257.474 127.538 257.74 127.728C258.006 127.918 258.314 128.024 258.631 128.034C258.948 128.044 259.261 127.957 259.536 127.783L266.836 123.049C267.454 122.637 268.146 122.38 268.863 122.296C269.581 122.211 270.306 122.302 270.989 122.561C271.687 122.779 272.332 123.167 272.877 123.697C273.421 124.228 273.851 124.886 274.135 125.625C274.614 126.852 274.68 128.228 274.322 129.505C273.965 130.782 273.206 131.875 272.184 132.587L255.226 144.041C255.02 144.181 254.843 144.368 254.707 144.59C254.571 144.813 254.48 145.064 254.44 145.329C253.873 148.81 253.244 152.291 252.52 155.424C252.459 155.706 252.456 156 252.511 156.284C252.566 156.568 252.677 156.835 252.837 157.065C252.997 157.295 253.201 157.483 253.435 157.615C253.668 157.746 253.926 157.819 254.188 157.826C254.513 157.825 254.831 157.715 255.1 157.513L277.124 142.37C280.302 140.23 282.675 136.894 283.808 132.973C284.94 129.053 284.757 124.812 283.291 121.03V121.064Z" fill="#F8BF64"/>
<path id="Vector_15" fill-rule="evenodd" clip-rule="evenodd" d="M244.372 175.476H216.339C209.533 175.464 202.913 173.022 197.461 168.514H263.532C258.076 173.011 251.459 175.451 244.655 175.476H244.372ZM269.825 165.903C269.693 165.552 269.471 165.251 269.185 165.041C268.899 164.83 268.563 164.718 268.22 164.719H192.71C192.37 164.715 192.038 164.827 191.756 165.038C191.475 165.25 191.259 165.551 191.137 165.903C191.002 166.252 190.966 166.639 191.033 167.012C191.1 167.385 191.268 167.726 191.515 167.991C198.108 175.252 207.036 179.322 216.339 179.306H244.372C253.683 179.319 262.62 175.251 269.227 167.991C269.479 167.715 269.649 167.362 269.717 166.977C269.784 166.592 269.745 166.193 269.604 165.833L269.825 165.903Z" fill="#F8BF64"/>
<path id="Vector_16" fill-rule="evenodd" clip-rule="evenodd" d="M219.58 107.558C219.58 108.532 219.58 109.507 219.58 110.517L225.086 110.865H241.006C240.471 109.89 239.873 108.811 239.275 107.383L219.58 107.558ZM232.165 70.2734C225.041 79.7654 220.706 91.4369 219.737 103.728H237.828C233.852 93.645 232.754 82.4584 234.682 71.6659C234.733 71.3885 234.703 71.1002 234.595 70.8433C234.488 70.5863 234.308 70.3744 234.084 70.2386L233.612 69.9253C233.362 69.7834 233.076 69.7406 232.801 69.8039C232.526 69.8673 232.28 70.033 232.102 70.2734H232.165Z" fill="#F8BF64"/>
<path id="Vector_17" fill-rule="evenodd" clip-rule="evenodd" d="M264.256 76.5742C255.726 74.5388 247.636 70.684 240.439 65.2253L246.479 61.1522L261.235 64.6335C261.289 64.8278 261.363 65.0147 261.455 65.1905C261.444 65.2945 261.444 65.3998 261.455 65.5038L261.739 66.1652C261.866 66.4666 262.014 66.7575 262.179 67.0355L262.651 67.9755C264.737 71.7163 267.553 74.8924 270.894 77.2704C268.579 77.2519 266.272 76.9837 264.004 76.4697L264.256 76.5742ZM276.998 76.8526C272.19 74.7649 268.118 71.0169 265.388 66.1652L264.916 65.2949L264.539 64.529L264.256 63.8676C264.067 63.4847 263.91 63.0669 263.721 62.5795C263.628 62.3129 263.476 62.0769 263.277 61.894C263.079 61.7112 262.842 61.5876 262.588 61.5352L246.417 57.8451C246.225 57.7925 246.025 57.784 245.831 57.8199C245.636 57.8558 245.45 57.9355 245.284 58.0539L236.569 63.9372C236.339 64.0878 236.149 64.3017 236.017 64.558C235.884 64.8143 235.814 65.1042 235.814 65.3994C235.805 65.6933 235.865 65.9847 235.986 66.2464C236.107 66.5082 236.286 66.7318 236.506 66.8963C258.309 83.4322 272.908 81.5523 276.872 80.5776C277.05 80.545 277.222 80.4741 277.375 80.3687C277.583 80.2174 277.759 80.0174 277.889 79.7828C278.02 79.5482 278.102 79.2847 278.13 79.011C278.231 78.6087 278.197 78.1799 278.035 77.8029C277.873 77.4259 277.594 77.1257 277.25 76.9571L276.998 76.8526Z" fill="#F8BF64"/>
<path id="Vector_18" fill-rule="evenodd" clip-rule="evenodd" d="M263.816 4.02537C258.202 7.84827 254.185 13.9769 252.646 21.0693C251.107 28.1617 252.171 35.6399 255.604 41.8666L264.823 58.5417L267.528 56.6967L258.373 40.0563C255.369 34.6274 254.437 28.1004 255.782 21.9113C257.128 15.7222 260.64 10.3779 265.546 7.05405C270.453 3.73023 276.352 2.69916 281.945 4.18769C287.539 5.67621 292.369 9.56239 295.372 14.9913L304.591 31.6317L307.297 29.8214L298.078 13.1462C294.628 6.92852 289.092 2.47729 282.681 0.767691C276.271 -0.941905 269.51 0.229531 263.879 4.02537" fill="#F8BF64"/>
<path id="Vector_19" fill-rule="evenodd" clip-rule="evenodd" d="M274.104 22.5801C273.482 23.0002 272.735 23.1298 272.027 22.9405C271.319 22.7511 270.708 22.2583 270.328 21.5705C269.949 20.8826 269.831 20.0561 270.003 19.2727C270.174 18.4892 270.619 17.8131 271.241 17.393C271.545 17.1774 271.885 17.0315 272.241 16.9638C272.598 16.8961 272.962 16.9081 273.314 16.9989C273.666 17.0898 273.998 17.2577 274.29 17.4928C274.583 17.7279 274.829 18.0254 275.016 18.3677C275.392 19.0626 275.506 19.8924 275.336 20.6796C275.165 21.4669 274.723 22.149 274.104 22.5801ZM269.573 14.3643C268.566 15.0387 267.762 16.0288 267.263 17.2092C266.765 18.3896 266.595 19.7072 266.774 20.9948C266.953 22.2825 267.474 23.4824 268.27 24.4423C269.066 25.4023 270.101 26.0791 271.246 26.3871C272.39 26.695 273.591 26.6202 274.696 26.172C275.802 25.7239 276.762 24.9227 277.456 23.8699C278.15 22.8171 278.545 21.5602 278.593 20.2584C278.64 18.9566 278.337 17.6685 277.722 16.5575C276.895 15.0724 275.572 14.0087 274.04 13.5979C272.508 13.1872 270.891 13.4626 269.542 14.3643H269.573Z" fill="#F8BF64"/>
<path id="Vector_20" fill-rule="evenodd" clip-rule="evenodd" d="M283.29 82.6667L318.151 58.9943C319.773 57.9049 321.186 56.4722 322.308 54.7783C323.429 53.0844 324.238 51.1624 324.688 49.1222C325.138 47.0821 325.22 44.9638 324.93 42.8885C324.64 40.8133 323.982 38.8217 322.996 37.0277V36.8188C318.095 28.257 310.349 22.1704 301.428 19.8728C292.508 17.5752 283.129 19.2508 275.315 24.5379C267.501 29.825 261.879 38.2997 259.663 48.1328C257.447 57.966 258.814 68.369 263.469 77.0967V77.3056C265.467 80.9007 268.67 83.4751 272.378 84.4665C276.086 85.4579 279.997 84.7858 283.259 82.5971" fill="#F8BF64"/>
<path id="Vector_21" d="M293.453 53.5983H292.352L287.412 44.6514L295.749 39.0117L296.914 41.1353L290.778 45.3128L293.264 49.8037C293.618 48.8964 294.239 48.1481 295.026 47.6801C295.653 47.1762 296.375 46.8361 297.138 46.6854C297.901 46.5347 298.685 46.5772 299.431 46.8098C300.998 47.4235 302.301 48.6658 303.08 50.2911C305.629 54.9212 305.062 58.5069 301.318 61.0483C299.937 62.0588 298.271 62.4794 296.63 62.2319L296.347 59.5165C297.633 59.8064 298.97 59.5844 300.123 58.8899C302.262 57.4625 302.514 55.2345 300.878 52.2754C299.242 49.3163 297.511 48.7941 295.403 50.2911C294.885 50.6579 294.443 51.1425 294.107 51.7126C293.77 52.2828 293.547 52.9256 293.453 53.5983ZM286.185 53.5983C284.738 50.9525 283.039 50.2911 281.088 51.614C280.703 51.857 280.376 52.199 280.135 52.6109C279.894 53.0229 279.746 53.4928 279.704 53.9812C279.632 55.1164 279.909 56.2451 280.49 57.184C280.995 58.2191 281.806 59.0305 282.787 59.4817C283.196 59.6627 283.638 59.7319 284.076 59.6834C284.515 59.6349 284.936 59.4702 285.304 59.2032C287.255 57.9151 287.538 55.8611 286.185 53.4242V53.5983ZM289.08 69.5774L287.255 68.9856C287.958 67.4307 288.386 65.7406 288.513 64.0073C288.886 62.2558 288.886 60.4325 288.513 58.681C288.172 59.871 287.428 60.8689 286.437 61.466C285.795 61.9493 285.066 62.274 284.301 62.4182C283.535 62.5623 282.751 62.5225 282 62.3015C280.444 61.6462 279.13 60.4332 278.269 58.8559C277.408 57.2785 277.049 55.4277 277.25 53.5983C277.388 52.7668 277.687 51.9784 278.127 51.2872C278.567 50.5961 279.137 50.0187 279.798 49.5948C283.448 47.1231 286.783 48.5504 289.74 53.9464C291.049 56.4672 291.631 59.3701 291.408 62.2667C291.421 64.8758 290.596 67.4052 289.08 69.4033V69.5774Z" fill="#0D0802"/>
<path id="Vector_22" d="M306.51 37.2361C306.51 37.6535 306.435 38.0667 306.288 38.4514C306.142 38.8362 305.928 39.1847 305.658 39.4766C305.389 39.7684 305.069 39.9977 304.718 40.151C304.367 40.3043 303.992 40.3785 303.615 40.3692C303.241 40.3806 302.869 40.306 302.523 40.1502C302.176 39.9944 301.862 39.7608 301.602 39.4641C301.329 39.1772 301.113 38.8313 300.967 38.448C300.821 38.0647 300.748 37.6522 300.752 37.2361C300.747 36.8149 300.82 36.3969 300.966 36.0079C301.112 35.6188 301.328 35.2668 301.602 34.9733C301.861 34.672 302.174 34.4331 302.52 34.2714C302.866 34.1096 303.239 34.0286 303.615 34.0334C304.383 34.0334 305.119 34.3708 305.662 34.9715C306.205 35.5721 306.51 36.3867 306.51 37.2361Z" fill="#0D0802"/>
<path id="Vector_23" fill-rule="evenodd" clip-rule="evenodd" d="M267.812 166.147C267.684 165.82 267.473 165.54 267.205 165.342C266.937 165.145 266.623 165.037 266.301 165.033H194.379C194.046 165.022 193.719 165.123 193.44 165.324C193.161 165.524 192.944 165.814 192.817 166.154C192.691 166.494 192.661 166.869 192.732 167.228C192.803 167.588 192.971 167.915 193.214 168.166C199.522 175.117 208.066 179.011 216.969 178.992H243.774C252.674 179 261.215 175.107 267.528 168.166C267.757 167.903 267.911 167.572 267.973 167.213C268.034 166.855 268 166.484 267.874 166.147" fill="#F8BF64"/>
</g>
<g id="icon3">
<path id="Vector_24" fill-rule="evenodd" clip-rule="evenodd" d="M430.392 68.4763L428.029 71.0905C430.605 74.002 432.048 77.9143 432.048 81.9888C432.048 86.0632 430.605 89.9755 428.029 92.8871L430.583 95.2893C433.726 91.6926 435.482 86.8855 435.482 81.8828C435.482 76.8801 433.726 72.0731 430.583 68.4763" fill="#F8BF64"/>
<path id="Vector_25" fill-rule="evenodd" clip-rule="evenodd" d="M424.166 58.7975L421.58 56.4307C418.452 60.0358 416.706 64.8395 416.706 69.8369C416.706 74.8343 418.452 79.6381 421.58 83.2432L423.975 80.629C421.397 77.7116 419.953 73.7935 419.953 69.7133C419.953 65.6331 421.397 61.715 423.975 58.7975" fill="#F8BF64"/>
<path id="Vector_26" fill-rule="evenodd" clip-rule="evenodd" d="M410.917 70.9489L408.331 68.582C405.203 72.1872 403.457 76.991 403.457 81.9884C403.457 86.9858 405.203 91.7896 408.331 95.3948L410.725 92.7806C408.162 89.8545 406.729 85.9396 406.729 81.8648C406.729 77.7899 408.162 73.875 410.725 70.9489" fill="#F8BF64"/>
<path id="Vector_27" fill-rule="evenodd" clip-rule="evenodd" d="M439.97 164.176H398.848C392.623 144.817 391.473 117.474 391.282 110.02H447.569C447.345 117.474 446.196 144.817 439.97 164.176ZM450.602 106.7C450.264 106.348 449.82 106.147 449.356 106.135H389.494C389.263 106.134 389.034 106.183 388.821 106.28C388.607 106.377 388.413 106.52 388.249 106.7C387.931 107.074 387.749 107.564 387.738 108.077C387.738 108.077 387.738 117.05 388.887 128.637C389.796 141.636 392.188 154.456 396.007 166.79C396.131 167.155 396.354 167.47 396.645 167.691C396.937 167.913 397.282 168.029 397.635 168.026H441.215C441.567 168.024 441.911 167.906 442.201 167.685C442.492 167.465 442.715 167.153 442.843 166.79C446.663 154.456 449.055 141.636 449.963 128.637C451.017 117.05 451.112 108.183 451.112 108.077C451.101 107.564 450.919 107.074 450.602 106.7Z" fill="#F8BF64"/>
<path id="Vector_28" fill-rule="evenodd" clip-rule="evenodd" d="M465.767 138.176L446.866 151.14C447.185 149.48 447.505 147.784 447.792 146.018L463.947 134.961C465.722 133.744 467.041 131.859 467.663 129.653C468.284 127.448 468.166 125.068 467.331 122.95C466.842 121.73 466.127 120.636 465.233 119.74C464.339 118.843 463.285 118.164 462.14 117.745C460.994 117.325 459.782 117.176 458.581 117.306C457.38 117.436 456.217 117.842 455.167 118.499L450.665 121.431C450.665 119.877 450.857 118.322 450.921 116.803L453.411 115.213C454.88 114.256 456.516 113.654 458.211 113.447C459.906 113.24 461.622 113.432 463.244 114.012C465.451 114.792 467.409 116.257 468.886 118.232C470.362 120.206 471.296 122.609 471.575 125.153C471.854 127.698 471.467 130.278 470.46 132.586C469.453 134.894 467.868 136.834 465.894 138.176H465.767ZM473.812 119.806C472.925 117.58 471.623 115.586 469.991 113.955C468.359 112.324 466.434 111.093 464.342 110.343C462.25 109.592 460.039 109.339 457.852 109.6C455.666 109.861 453.554 110.631 451.655 111.857L448.462 114.012C448.213 114.171 448.003 114.397 447.853 114.668C447.702 114.94 447.615 115.249 447.6 115.567C447.6 118.605 447.281 121.713 447.026 124.787C446.995 125.141 447.053 125.498 447.193 125.818C447.334 126.138 447.55 126.41 447.821 126.603C448.091 126.796 448.404 126.904 448.725 126.914C449.047 126.924 449.364 126.835 449.644 126.659L457.051 121.855C457.678 121.453 458.374 121.202 459.094 121.117C459.814 121.032 460.543 121.116 461.232 121.362C461.921 121.609 462.556 122.013 463.095 122.548C463.634 123.083 464.066 123.737 464.362 124.469C464.848 125.714 464.915 127.111 464.552 128.406C464.189 129.702 463.42 130.811 462.382 131.534L445.525 143.086C445.316 143.228 445.136 143.418 444.998 143.644C444.861 143.869 444.768 144.125 444.727 144.393C444.152 147.926 443.482 151.458 442.779 154.638C442.718 154.924 442.714 155.222 442.77 155.51C442.825 155.798 442.938 156.069 443.1 156.303C443.263 156.536 443.47 156.727 443.707 156.86C443.944 156.994 444.205 157.067 444.472 157.075C444.802 157.073 445.124 156.963 445.397 156.757L467.746 141.39C470.9 139.167 473.232 135.77 474.32 131.812C475.409 127.854 475.184 123.596 473.684 119.806H473.812Z" fill="#F8BF64"/>
<path id="Vector_29" fill-rule="evenodd" clip-rule="evenodd" d="M434.191 175.056H405.745C398.838 175.043 392.12 172.565 386.589 167.991H453.635C448.097 172.554 441.383 175.031 434.479 175.056H434.191ZM460.02 165.341C459.887 164.985 459.661 164.68 459.371 164.467C459.081 164.253 458.74 164.139 458.392 164.14H381.736C381.391 164.136 381.053 164.25 380.768 164.464C380.482 164.679 380.263 164.985 380.139 165.341C380.002 165.696 379.965 166.089 380.033 166.467C380.102 166.845 380.272 167.192 380.523 167.461C387.211 174.832 396.272 178.962 405.713 178.942H434.159C443.608 178.956 452.677 174.828 459.381 167.461C459.635 167.18 459.809 166.823 459.883 166.434C459.957 166.045 459.927 165.641 459.796 165.271L460.02 165.341Z" fill="#F8BF64"/>
<path id="Vector_30" d="M436.011 141.673C436.009 141.487 436.043 141.304 436.109 141.134C436.175 140.963 436.272 140.81 436.394 140.683C436.636 140.433 436.956 140.294 437.288 140.295C437.453 140.291 437.616 140.323 437.77 140.39C437.923 140.457 438.063 140.556 438.182 140.683C438.304 140.81 438.401 140.963 438.467 141.134C438.533 141.304 438.566 141.487 438.565 141.673C438.567 141.863 438.534 142.052 438.468 142.228C438.402 142.404 438.305 142.564 438.182 142.697C438.063 142.824 437.923 142.924 437.77 142.991C437.616 143.057 437.453 143.09 437.288 143.086C436.956 143.086 436.636 142.947 436.394 142.697C436.271 142.564 436.173 142.404 436.108 142.228C436.042 142.052 436.009 141.863 436.011 141.673ZM432.052 142.732V137.893C432.101 137.334 431.977 136.773 431.701 136.303C431.542 136.13 431.351 135.996 431.142 135.911C430.933 135.825 430.71 135.79 430.487 135.808C430.198 135.829 429.916 135.913 429.657 136.056C429.392 136.206 429.154 136.41 428.955 136.656V142.732H427.199V134.36H428.476L428.795 135.137C429.062 134.808 429.394 134.551 429.765 134.386C430.136 134.22 430.536 134.151 430.934 134.183C431.321 134.166 431.707 134.235 432.069 134.387C432.432 134.539 432.762 134.77 433.041 135.067C433.593 135.756 433.879 136.656 433.84 137.575V142.732H432.052ZM423.368 142.732V135.95H422.378V134.36H425.156V142.732H423.368ZM424.262 131.11C424.397 131.105 424.532 131.131 424.658 131.186C424.784 131.241 424.898 131.324 424.994 131.43C425.09 131.536 425.165 131.663 425.215 131.802C425.264 131.942 425.288 132.091 425.283 132.24C425.286 132.542 425.183 132.834 424.996 133.053C424.899 133.157 424.784 133.239 424.658 133.293C424.532 133.348 424.397 133.374 424.262 133.371C424.126 133.376 423.991 133.35 423.865 133.295C423.74 133.24 423.625 133.157 423.529 133.051C423.434 132.945 423.358 132.818 423.309 132.679C423.259 132.539 423.236 132.39 423.24 132.24C423.237 132.091 423.261 131.942 423.31 131.802C423.359 131.663 423.433 131.536 423.527 131.428C423.633 131.317 423.759 131.231 423.896 131.176C424.034 131.121 424.18 131.099 424.325 131.11H424.262ZM419.217 142.732V137.469C419.217 136.374 418.77 135.808 417.876 135.808C417.602 135.822 417.337 135.919 417.11 136.091C416.895 136.223 416.718 136.419 416.599 136.656V142.732H414.843V137.01C414.85 136.832 414.822 136.655 414.762 136.49C414.701 136.326 414.609 136.177 414.492 136.056C414.364 135.923 414.213 135.821 414.049 135.754C413.884 135.687 413.709 135.658 413.534 135.667C413.271 135.687 413.017 135.784 412.8 135.95C412.572 136.103 412.376 136.307 412.225 136.55V142.591H410.469V134.36H411.683L412.034 135.067C412.281 134.781 412.578 134.555 412.908 134.403C413.238 134.251 413.592 134.176 413.949 134.183C414.364 134.155 414.78 134.221 415.17 134.379C415.56 134.537 415.916 134.784 416.216 135.102C416.469 134.796 416.787 134.565 417.142 134.431C417.518 134.266 417.919 134.182 418.323 134.183C418.685 134.166 419.047 134.228 419.387 134.368C419.727 134.508 420.039 134.721 420.303 134.996C420.784 135.598 421.036 136.383 421.005 137.186V142.732H419.217ZM400.061 141.743L400.955 140.189C401.177 140.477 401.45 140.71 401.758 140.874C402.066 141.039 402.401 141.13 402.743 141.143C403.924 141.143 404.499 140.542 404.499 139.341C404.514 139.089 404.476 138.836 404.387 138.603C404.298 138.37 404.162 138.163 403.988 137.999C403.61 137.633 403.118 137.443 402.615 137.469H402.296V135.773H402.583C403.605 135.773 404.148 135.314 404.148 134.325C404.148 133.336 403.669 132.806 402.679 132.806C402.399 132.817 402.125 132.892 401.872 133.025C401.619 133.159 401.394 133.349 401.211 133.583L400.348 132.205C400.631 131.855 400.98 131.578 401.37 131.393C401.816 131.189 402.293 131.081 402.775 131.075C403.641 131.008 404.501 131.283 405.201 131.852C405.49 132.117 405.718 132.453 405.868 132.833C406.018 133.214 406.085 133.628 406.063 134.042C406.079 134.559 405.966 135.07 405.734 135.519C405.503 135.968 405.164 136.337 404.754 136.586C405.257 136.825 405.684 137.225 405.98 137.735C406.276 138.245 406.427 138.841 406.415 139.447C406.434 139.926 406.355 140.404 406.183 140.844C406.012 141.285 405.753 141.677 405.425 141.991C404.643 142.63 403.682 142.943 402.711 142.874C401.785 142.843 400.9 142.441 400.221 141.743H400.061Z" fill="#F8BF64"/>
<path id="Vector_31" fill-rule="evenodd" clip-rule="evenodd" d="M458.36 165.589C458.228 165.251 458.009 164.964 457.731 164.763C457.453 164.562 457.128 164.456 456.795 164.458H383.715C383.381 164.455 383.053 164.563 382.775 164.769C382.497 164.975 382.282 165.269 382.158 165.613C382.033 165.957 382.006 166.334 382.079 166.695C382.151 167.057 382.321 167.385 382.566 167.638C388.957 174.686 397.615 178.638 406.638 178.624H433.84C442.874 178.643 451.544 174.691 457.945 167.638C458.182 167.375 458.345 167.041 458.413 166.677C458.481 166.313 458.451 165.934 458.328 165.589" fill="#F8BF64"/>
</g>
<g id="icon4">
<path id="Vector_32" d="M622.514 83.0735H597.41V99.1885H622.514V83.0735Z" fill="#F8BF64"/>
<path id="Vector_33" fill-rule="evenodd" clip-rule="evenodd" d="M611.751 74.0268H608.174L604.98 68.5492H615.136L611.751 74.0268ZM617.979 66.9589C617.882 66.7733 617.742 66.6198 617.574 66.5141C617.405 66.4085 617.214 66.3546 617.021 66.3581H602.904C602.71 66.3508 602.517 66.403 602.348 66.509C602.179 66.615 602.04 66.7707 601.946 66.9589C601.851 67.1415 601.8 67.3487 601.8 67.5597C601.8 67.7706 601.851 67.9778 601.946 68.1604L606.705 75.8645C606.807 76.0202 606.942 76.1464 607.097 76.2325C607.253 76.3186 607.425 76.3621 607.599 76.3592H612.326C612.5 76.3621 612.672 76.3186 612.828 76.2325C612.983 76.1464 613.118 76.0202 613.22 75.8645L617.915 68.0191C618.02 67.8427 618.082 67.6387 618.093 67.4278C618.104 67.2168 618.065 67.0063 617.979 66.8175V66.9589Z" fill="#F8BF64"/>
<path id="Vector_34" fill-rule="evenodd" clip-rule="evenodd" d="M599.582 74.0266L602.776 69.3973L605.555 74.0266H599.582ZM608.461 74.5567L603.766 66.7469C603.68 66.5879 603.558 66.4559 603.413 66.3632C603.268 66.2705 603.103 66.2201 602.936 66.2168C602.764 66.2037 602.592 66.2389 602.435 66.3193C602.279 66.3996 602.143 66.5224 602.042 66.6762L596.58 74.486C596.471 74.6699 596.414 74.8848 596.414 75.1045C596.414 75.3241 596.471 75.539 596.58 75.7229C596.673 75.915 596.811 76.0757 596.98 76.1877C597.148 76.2998 597.341 76.359 597.538 76.359H607.727C607.919 76.3674 608.11 76.3155 608.277 76.2092C608.444 76.1029 608.58 75.9465 608.67 75.7581C608.761 75.5697 608.801 75.357 608.786 75.1444C608.772 74.9318 608.703 74.7281 608.589 74.5567H608.461Z" fill="#F8BF64"/>
<path id="Vector_35" fill-rule="evenodd" clip-rule="evenodd" d="M614.306 74.0269L617.085 69.3975L620.278 74.0269H614.306ZM623.344 74.4863L617.851 66.6764C617.759 66.5202 617.63 66.3948 617.478 66.3139C617.326 66.2329 617.157 66.1994 616.989 66.2169C616.82 66.2168 616.655 66.2658 616.509 66.3588C616.363 66.4519 616.242 66.5858 616.158 66.747L611.431 74.557C611.336 74.7397 611.286 74.9469 611.286 75.1578C611.286 75.3687 611.336 75.5759 611.431 75.7586C611.52 75.9439 611.654 76.0983 611.817 76.2043C611.981 76.3104 612.168 76.3641 612.358 76.3593H622.674C622.871 76.3593 623.064 76.3001 623.232 76.1881C623.401 76.076 623.539 75.9154 623.632 75.7232C623.702 75.509 623.712 75.2763 623.661 75.0556C623.61 74.8349 623.499 74.6364 623.344 74.4863Z" fill="#F8BF64"/>
<path id="Vector_36" fill-rule="evenodd" clip-rule="evenodd" d="M621.46 97.9866H598.465V76.3592H621.46V97.9866ZM622.514 73.9915H597.411C597.131 73.9915 596.863 74.1143 596.665 74.333C596.468 74.5517 596.357 74.8484 596.357 75.1576V99.1528C596.352 99.3073 596.376 99.4611 596.428 99.6048C596.479 99.7485 596.557 99.8791 596.656 99.9884C596.754 100.098 596.872 100.183 597.002 100.24C597.132 100.297 597.271 100.324 597.411 100.319H622.674C622.954 100.319 623.222 100.196 623.419 99.9774C623.617 99.7587 623.728 99.4621 623.728 99.1528V75.193C623.728 74.8837 623.617 74.5871 623.419 74.3684C623.222 74.1497 622.954 74.0268 622.674 74.0268L622.514 73.9915Z" fill="#F8BF64"/>
<path id="Vector_37" fill-rule="evenodd" clip-rule="evenodd" d="M608.525 36.567C608.577 36.5452 608.633 36.5452 608.685 36.567H608.94C609.023 36.5346 609.113 36.5346 609.196 36.567C609.196 36.567 609.356 36.567 609.419 36.567C609.757 36.4962 610.104 36.4962 610.441 36.567H610.697C610.791 36.5365 610.891 36.5365 610.984 36.567H611.208C611.238 36.5513 611.271 36.5431 611.304 36.5431C611.337 36.5431 611.37 36.5513 611.4 36.567C611.576 36.6357 611.731 36.7583 611.847 36.9204L619.48 45.5079C619.736 45.7692 619.939 46.0863 620.079 46.439C620.218 46.7917 620.29 47.1726 620.29 47.5575C620.29 47.9425 620.218 48.3233 620.079 48.6761C619.939 49.0288 619.736 49.3458 619.48 49.6072C619.237 49.8765 618.948 50.0901 618.63 50.2358C618.312 50.3816 617.972 50.4566 617.628 50.4566C617.284 50.4566 616.943 50.3816 616.625 50.2358C616.307 50.0901 616.018 49.8765 615.775 49.6072L612.581 46.0733V59.7496C612.581 60.5182 612.305 61.2553 611.814 61.7987C611.323 62.3422 610.657 62.6475 609.962 62.6475C609.268 62.6475 608.602 62.3422 608.111 61.7987C607.619 61.2553 607.343 60.5182 607.343 59.7496V46.0026L604.15 49.5365C603.654 50.0321 603.007 50.3023 602.339 50.2931C601.671 50.2839 601.031 49.9959 600.547 49.4867C600.062 48.9776 599.769 48.2848 599.727 47.5471C599.684 46.8094 599.895 46.081 600.317 45.5079L608.11 36.9204C608.21 36.7561 608.356 36.6321 608.525 36.567Z" fill="#F8BF64"/>
<path id="Vector_38" fill-rule="evenodd" clip-rule="evenodd" d="M629.988 164.036H588.851C582.463 144.67 581.473 117.353 581.25 109.861H637.557C637.366 117.353 636.216 144.67 629.988 164.036ZM640.591 106.539C640.428 106.359 640.233 106.216 640.02 106.119C639.806 106.022 639.577 105.973 639.346 105.974H579.461C579.228 105.974 578.997 106.025 578.781 106.125C578.566 106.225 578.371 106.371 578.207 106.555C578.044 106.74 577.915 106.958 577.829 107.198C577.742 107.438 577.7 107.694 577.704 107.953C577.704 107.953 577.704 116.894 578.854 128.485C579.763 141.489 582.156 154.313 585.976 166.651C586.105 167.014 586.328 167.326 586.619 167.547C586.909 167.768 587.253 167.886 587.605 167.888H631.202C631.555 167.891 631.9 167.775 632.192 167.553C632.483 167.332 632.706 167.017 632.83 166.651C636.651 154.313 639.044 141.489 639.953 128.485C641.007 116.894 641.102 108.023 641.102 107.953C641.099 107.427 640.917 106.922 640.591 106.539Z" fill="#F8BF64"/>
<path id="Vector_39" fill-rule="evenodd" clip-rule="evenodd" d="M655.762 138.026L636.887 150.996C637.206 149.335 637.493 147.638 637.781 145.871L653.974 134.81C655.739 133.582 657.048 131.694 657.663 129.49C658.278 127.286 658.159 124.91 657.327 122.795C656.84 121.555 656.12 120.443 655.216 119.533C654.312 118.622 653.244 117.934 652.083 117.513C650.921 117.093 649.692 116.949 648.477 117.092C647.261 117.235 646.087 117.661 645.031 118.342L640.527 121.275C640.527 119.72 640.719 118.201 640.783 116.681L643.274 115.055C644.637 114.148 646.149 113.547 647.722 113.286C649.295 113.025 650.899 113.109 652.443 113.534C653.987 113.959 655.439 114.716 656.719 115.763C657.998 116.809 659.078 118.124 659.898 119.632C660.718 121.14 661.262 122.812 661.498 124.553C661.734 126.294 661.657 128.069 661.273 129.777C660.889 131.485 660.205 133.092 659.259 134.508C658.314 135.923 657.125 137.119 655.762 138.026ZM663.683 119.65C662.799 117.419 661.499 115.42 659.867 113.785C658.235 112.151 656.308 110.917 654.214 110.166C652.12 109.415 649.906 109.163 647.717 109.427C645.529 109.691 643.416 110.465 641.518 111.698L638.324 113.854C638.074 114.013 637.864 114.238 637.714 114.51C637.563 114.782 637.476 115.091 637.461 115.409C637.461 118.448 637.142 121.558 636.887 124.668C636.858 125.024 636.921 125.382 637.068 125.701C637.215 126.019 637.44 126.286 637.717 126.47C637.991 126.654 638.306 126.751 638.627 126.751C638.948 126.751 639.263 126.654 639.537 126.47L646.915 121.664C647.545 121.262 648.243 121.01 648.966 120.925C649.689 120.84 650.42 120.923 651.112 121.169C651.804 121.416 652.442 121.82 652.984 122.355C653.527 122.891 653.962 123.546 654.261 124.279C654.737 125.53 654.796 126.927 654.428 128.222C654.059 129.516 653.287 130.624 652.249 131.347L635.449 143.009C635.235 143.145 635.052 143.334 634.914 143.561C634.776 143.787 634.686 144.046 634.651 144.316C634.044 147.85 633.405 151.384 632.671 154.6C632.591 154.972 632.613 155.361 632.732 155.719C632.851 156.077 633.063 156.389 633.341 156.614C633.647 156.862 634.016 156.998 634.395 157.003C634.711 157.001 635.021 156.904 635.29 156.72L657.647 141.313C660.833 139.103 663.196 135.699 664.304 131.723C665.412 127.746 665.192 123.461 663.683 119.65Z" fill="#F8BF64"/>
<path id="Vector_40" fill-rule="evenodd" clip-rule="evenodd" d="M624.175 174.92H595.75C588.841 174.905 582.121 172.427 576.586 167.852H643.657C638.12 172.422 631.402 174.9 624.494 174.92H624.175ZM650.045 165.202C649.92 164.84 649.695 164.529 649.404 164.314C649.112 164.099 648.767 163.989 648.416 164H571.764C571.415 163.999 571.074 164.112 570.784 164.325C570.494 164.539 570.268 164.843 570.134 165.199C570.001 165.555 569.966 165.947 570.034 166.325C570.102 166.703 570.271 167.05 570.518 167.322C573.833 170.981 577.768 173.879 582.098 175.85C586.428 177.821 591.067 178.826 595.75 178.808H624.175C628.857 178.826 633.496 177.821 637.826 175.85C642.156 173.879 646.091 170.981 649.406 167.322C649.662 167.042 649.835 166.683 649.904 166.292C649.972 165.901 649.932 165.497 649.79 165.131L650.045 165.202Z" fill="#F8BF64"/>
<path id="Vector_41" fill-rule="evenodd" clip-rule="evenodd" d="M648.224 165.45C648.086 165.117 647.866 164.835 647.589 164.635C647.312 164.435 646.99 164.325 646.659 164.319H573.456C573.129 164.323 572.81 164.433 572.538 164.633C572.266 164.834 572.053 165.118 571.923 165.45C571.795 165.792 571.761 166.168 571.823 166.532C571.886 166.896 572.042 167.232 572.274 167.499C578.681 174.549 587.352 178.501 596.388 178.49H623.6C632.637 178.509 641.31 174.556 647.713 167.499C647.951 167.236 648.113 166.902 648.182 166.538C648.25 166.174 648.22 165.796 648.097 165.45" fill="#F8BF64"/>
</g>
</g>
</svg>
