<svg width="65" height="65" fill="none" xmlns="http://www.w3.org/2000/svg"><path d="M18.056 0A18.056 18.056 0 000 18.056v28.888A18.056 18.056 0 0018.056 65h28.888A18.056 18.056 0 0065 46.944V18.056A18.056 18.056 0 0046.944 0H18.056zm36.11 7.222a3.622 3.622 0 013.612 3.611 3.622 3.622 0 01-3.611 3.611 3.622 3.622 0 01-3.611-3.61 3.622 3.622 0 013.61-3.612zM32.5 14.444a18.056 18.056 0 110 36.112 18.056 18.056 0 010-36.112zm0 7.223a10.834 10.834 0 00-10.833 10.84 10.834 10.834 0 0010.84 10.834 10.837 10.837 0 00-.007-21.674z" fill="#F8C064"/></svg>