<svg xmlns="http://www.w3.org/2000/svg" viewBox="0 0 814.53 494.07"><g data-name="Слой 2"><path d="M506.68 253h-5.37v-5.37zm18.14 0h-10.13l-13.38-13.39V229.5zm18.18 0h-10.17l-31.52-31.53v-10.1zM552 .12h10.13l4.74 4.74V15zm-18.1 0H544L566.9 23v10.12zm-18.14 0h10.12l41 41v10.14zm-14.45 3.7V.12h6.43l59.16 59.16v10.13zm0 18.13V11.83l65.59 65.59v10.12zm0 18.14V30l65.59 65.56v10.12zm0 18.14V48.11l65.59 65.59v10.13zm0 18.14V66.25l65.59 65.59V142zm0 18.15V84.38L566.9 150v10.13zm0 18.13v-10.12l65.59 65.59v10.12zm0 18.14v-10.12l65.59 65.59v10.12zm0 18.14v-10.12l65.59 65.59v10.12zm0 18.14V157l65.59 65.59v10.12zm0 18.14v-10.13l65.59 65.59v10.13zM561.1 253H551l-49.66-49.67v-10.1zm-290.24 0h-7.28v-7.28zm18.14 0h-10.13l-15.29-15.3v-10.1zm18.14 0H297l-33.43-33.43v-10.11zm18.14 0h-10.13l-51.57-51.57v-10.11zm3.89-14.25v10.15l-65.59-65.59v-10.13zm0-18.14v10.13l-65.59-65.59V155zm0-18.14v10.13L263.58 147v-10.1zm0-18.14v10.13l-65.59-65.59v-10.11zM397.84 253h-6.11l-11.19-17.3zm-68.67-86.81v10.13l-65.59-65.59v-10.11zM416 253h-10.15l-40-40-18.56-28.69zm18.14 0H424l-91.4-91.4-3.42-5.29v1.87l-65.6-65.57V82.48zm18.14 0h-10.15L263.58 74.47V64.34zm-28.43-64.71l.93 1.21 31.81 41.65-117.7-117.66h2.54q3.84 0 7.28-.3zm-22.55-40.65c-2.28.69-4.65 1.32-7.1 1.87l3.73 4.89-42.21-42.21a39.64 39.64 0 007.75-2.38zm13-5.15a73.48 73.48 0 01-7 3.11L368.63 107a22.38 22.38 0 002.63-2.18 36.48 36.48 0 002.57-2.74zm11-7.12a57.05 57.05 0 01-5.9 4.23l-42.27-42.28a29.8 29.8 0 002.94-7.19zm9-9.16a65 65 0 01-4.77 5.36l-48.44-48.43v-1.43a32 32 0 00-1.63-10.3zM391.41 2.75a83.36 83.36 0 0114.93 4.81l35.73 35.73a77.21 77.21 0 015.19 15.32zM370.73.21c3.79.14 7.46.43 11 .87l67.13 67.13a93 93 0 01.51 9.83v.8zM352.5.12h10.12L449 86.53a90.09 90.09 0 01-1.17 9zm-18.14 0h10.12L446.38 102a70.65 70.65 0 01-2.52 7.61zm-18.14 0h10.13l115 115a63.65 63.65 0 01-3.72 6.41zm-18.14 0h10.12L361 52.93a52 52 0 00-12.61-2.48zm-18.14 0h10.13l50 50.05H330zm-16.36 1.79V.12h8.35l57.24 57.25V67.5zm0 18.14V9.92l65.59 65.59v10.13zm0 18.14V28.06l65.59 65.59v10.13zM470.4 253h-10.13L263.58 56.33V46.2l65.59 65.59v1.7h1.7zm-453.63-.13H6.65l-6.51-6.49v-10.12zm18.14 0H24.79L.14 228.24v-10.13zm18.14 0H42.93L.14 210.1V200zm18.14 0H61.06L.14 192v-10.16zm18.14 0H79.21L.14 173.82V163.7zm17.73-.42q-4.83.41-9.72.42L.14 155.68v-10.12zm15.76-2.38c-2.85.63-5.7 1.15-8.57 1.56L.14 137.55v-10.13L65.73 193v5.28H71zm-57.09-75.2V185L.14 119.4v-10.12zM137 246.09c-2.56.89-5.14 1.69-7.72 2.41L79 198.29h1.68c2.79 0 5.51-.1 8.14-.3zm-71.27-89.36v10.13L.14 101.26V91.14zm84.06 84.05c-2.3 1.11-4.64 2.14-7 3.11L96 197.16a79.71 79.71 0 008.36-1.76zM65.73 138.59v10.12L.14 83.12V73zm95.75 95.75q-3.14 2-6.39 3.73l-44.61-44.6a63.87 63.87 0 007-3.08zM65.73 120.45v10.12L.14 65V54.86zm106.38 106.38q-2.84 2.25-5.81 4.32l-43.68-43.68a58.57 58.57 0 005.86-4.28zM65.73 102.31v10.13L.14 46.85V36.72zm116 116c-1.72 1.68-3.48 3.29-5.27 4.86l-43.82-43.82a62.82 62.82 0 004.78-5.35zm-116-134.14v10.12L.14 28.7V18.58zm124.76 124.75a137.17 137.17 0 01-4.77 5.37l-44.89-44.9a73.05 73.05 0 003.78-6.34zM65.73 66v10.16L.14 10.57V.44zm132.62 132.65l-.55.78a150.39 150.39 0 01-3.74 5.06l-46.85-46.86a72.88 72.88 0 002.7-7.42zM72.44 54.6h-6.71V58L7.71 0h10.13zm132.93 132.93c-1.2 2.12-2.47 4.22-3.81 6.32l-50-50a83 83 0 001.35-8.79zM91.09 55.1q-5-.49-10.38-.5h-.26L25.86 0H36zm120.33 120.33q-1.51 3.48-3.25 6.88l-54.86-54.86v-1.13a89.27 89.27 0 00-.5-9.49zM115.83 61.71a69.57 69.57 0 00-15.25-5.12L44 0h10.12zm100.48 100.47c-.78 2.54-1.63 5.06-2.58 7.56l-62.56-62.57a72.14 72.14 0 00-5.77-15.89zm3.47-14.66c-.48 2.81-1.07 5.61-1.75 8.38L62.13 0h10.13zM144.56 9.86a127.35 127.35 0 0118.36 10q2.81 1.82 5.49 3.74l28.94 29a134.84 134.84 0 0111.26 18.81c.77 1.6 1.51 3.19 2.22 4.8zm-26.12-8a115.25 115.25 0 0113.37 3.25l83.92 83.92a123.3 123.3 0 013.53 13.65zM98.42 0q5.42.06 10.71.58L220.75 112.2c.42 3.61.67 7.25.77 10.9zm123.05 131.07c-.11 3.17-.35 6.32-.7 9.43L80.28 0H90.4zM633.66 253h-10.13l-3.36-3.36v-10.11zm18.14 0h-10.13l-21.5-21.5v-10.11zm18.14 0h-10.13l-39.64-39.64v-10.11zm15.82-2.32V253H678l-57.78-57.78v-10.11zm0-18.14v10.13l-65.59-65.57V167zm0-18.14v10.12L620.17 159v-10.17zm0-18.14v10.13l-65.59-65.59v-10.11zm0-18.14v10.13l-65.59-65.59v-10.11zm9.22-8.92h-9.22v.9l-65.59-65.58V94.41zm18.14 0H703l-82.83-82.8V76.27zm18.08-.06c-1.43.05-2.89.06-4.37.06h-5.7l-101-101V58.13zm-45.44-63.58v10.13l-65.59-65.57V40zm62.08 62.08c-2.91.47-5.93.83-9 1.09l-52.22-52.23h10.08zm-62.08-80.2v10.13L620.17 32V21.85zm76.73 76.73q-3.82 1.26-7.93 2.19l-49.85-49.84h2.91q3.68 0 6.94-.28zM685.76 69.3v10.13l-65.59-65.59V3.71zm89.43 89.43a73.31 73.31 0 01-6.85 3.28l-46.78-46.78a36.94 36.94 0 007.67-2.46zm-87.76-105.9h-1.67v8.46L624.6.12h10.12zM786 151.36a63.7 63.7 0 01-5.78 4.35l-46-46a19.46 19.46 0 002.72-2.64l.23-.27.22-.26.21-.27.22-.28.21-.28.2-.28.2-.28.2-.28.2-.29.15-.24zm-80.4-98.53h-10.16L642.74.12h10.12zm89.27 89.26a61.15 61.15 0 01-4.72 5.41l-48.47-48.43.06-.15.13-.35.12-.35.13-.35.11-.35.12-.36.11-.36.11-.36.1-.36.1-.37.1-.37.13-.34.09-.37.08-.38.08-.38.08-.39.07-.39.07-.39.06-.39.07-.4.06-.4.06-.4V91zm-68.48-86.58a47.78 47.78 0 00-12.6-2.51L660.88.12H671zM801.91 131q-1.73 3.28-3.75 6.38l-54-54V79.9l-.05-.42v-1.24l-.06-.4-.06-.41-.07-.4-.07-.4-.07-.39-.07-.39-.09-.39-.08-.39-.09-.39-.45-.38-.1-.38-.1-.37-.1-.38-.11-.37-.12-.36-.12-.37-.12-.36-.13-.36-.1-.25zm5.38-12.76q-1.24 3.78-2.79 7.34L679 .12h10.12zm3.54-14.6c-.48 2.87-1.05 5.67-1.74 8.39L697.15.12h10.13zM755.3 3.85a83.41 83.41 0 0115.08 5.63l.4.19 1 .49 31.1 31.14a78.84 78.84 0 016.38 16.51zM733.72.41q5.89.38 11.39 1.26l66.19 66.2a104.1 104.1 0 011 11.13zm78.63 86.64c-.08 3.27-.28 6.44-.59 9.54L715.3.12h10.13zm2.18 401.06h-94.21V322.3h94.21v35.8h-51.21v28.58h48.48v35.8h-48.48v29.83h51.21zm-121.64 0h-94.21V322.3h94.21v35.8h-51.21v28.58h48.48v35.8h-48.48v29.83h51.21zM573 358.1h-52v28.58h47.23v35.8H521v65.63h-43V322.3h95zm-120.65 0h-51.96v28.58h47.23v35.8h-47.23v65.63h-43V322.3h95zm-167 47.64a44.6 44.6 0 00-11.19-30.33q-14.36-16.34-35.84-16.32a46.8 46.8 0 00-46.94 46.65 45.48 45.48 0 0011.19 30.12q13.86 16.47 35.75 16.45T274.15 436a45 45 0 0011.19-30.26zm44.74 0q0 33.81-22.45 59.29-25.61 29-69.32 29t-69.23-29q-22.44-25.48-22.46-59.29a89.57 89.57 0 016.09-31.61A87.21 87.21 0 01169 346.37q25.6-29 69.35-29t69.32 29q22.38 25.49 22.41 59.37zm-203.3 78.47q-21.14 8.39-39.11 8.37-31.32 0-56.1-20.05Q0 446.92 0 405.74t31.57-66.87A87.26 87.26 0 0188 318.82q17.22 0 38.74 8.37v51.54a46.52 46.52 0 00-37.21-18.15 44.77 44.77 0 00-29.16 10.11q-15.62 12.81-15.62 35.05t15.66 35a44.77 44.77 0 0029.16 10.11 47.22 47.22 0 0024.82-7c4.14-2.4 8.25-6.18 12.39-11.19zm660.28-251.65A22.36 22.36 0 01764.63 255a22.39 22.39 0 01-16.34-6.55 22.26 22.26 0 010-31.66 22.84 22.84 0 0116.34-6.42 21.9 21.9 0 0115.89 6.42 21.31 21.31 0 016.55 15.77" fill="#f8bf64" data-name="Слой 1"/></g></svg>