<svg width="200" height="24" viewBox="0 0 200 24" fill="none" xmlns="http://www.w3.org/2000/svg">
<path fill-rule="evenodd" clip-rule="evenodd" d="M156.544 17.031C156.748 17.4217 153.978 20.2987 153.29 20.5828C152.494 21.2016 151.534 21.5986 150.517 21.7302C149.5 21.8618 148.465 21.7228 147.525 21.3287C146.431 20.7617 145.567 19.8615 145.07 18.7714C145.019 18.668 144.975 18.5611 144.94 18.4517C144.94 18.3452 144.94 18.2564 144.81 18.1321L144.605 17.4928L144.326 14.7401L144.921 11.5612C145.405 10.5667 145.888 9.57221 146.391 8.5777C146.899 8.49444 147.42 8.52836 147.912 8.67664C148.404 8.82492 148.851 9.08325 149.217 9.43013C151.504 11.7743 154.182 16.5338 156.079 16.5338C157.976 16.5338 156.209 16.4095 156.544 17.0133V17.031ZM151.114 11.6855C149.374 13.0034 148.235 14.9122 147.934 17.0133C147.886 17.6722 147.924 18.3343 148.046 18.9845C148.046 19.3752 148.343 20.6361 148.641 20.7604C148.938 20.8847 149.013 19.9968 149.031 19.8014C149.078 18.5457 149.393 17.3124 149.956 16.1766C150.518 15.0407 151.317 14.0263 152.304 13.1951L151.114 11.6855Z" fill="black"/>





<path fill-rule="evenodd" clip-rule="evenodd" d="M134.006 5.04362C134.846 5.52657 135.558 6.188 136.087 6.97648C136.616 7.76496 136.948 8.65926 137.056 9.58994C137.354 11.666 137.077 13.7806 136.251 15.7222C135.426 17.6638 134.081 19.3644 132.351 20.6539C131.742 21.1875 131.006 21.5721 130.207 21.7748C129.408 21.9775 128.57 21.9922 127.763 21.8176C126.957 21.643 126.207 21.2843 125.578 20.7724C124.949 20.2604 124.459 19.6104 124.15 18.878C124.15 18.7714 124.039 18.6648 124.001 18.5583L123.89 18.2386C123.89 18.0078 123.741 17.8302 123.685 17.5993C123.218 15.4279 123.395 13.175 124.197 11.0946C124.999 9.01424 126.393 7.18912 128.223 5.82502C128.986 5.29413 129.852 4.91377 130.77 4.70619C131.862 4.475 133.003 4.60658 134.006 5.07914V5.04362ZM133.039 5.71847C132.704 5.98486 132.611 7.31679 132.481 7.8318C131.991 9.63142 130.979 11.2625 129.562 12.5379L128.818 13.1773C127.687 14.2193 127.021 15.638 126.958 17.1375C126.92 17.7965 126.957 18.4576 127.07 19.1088C127.163 19.4995 127.386 20.7604 127.665 20.8847C127.944 21.009 128.037 20.1211 128.074 19.9257C128.181 17.9941 128.894 16.1378 130.12 14.598C130.554 14.0919 131.033 13.6225 131.551 13.1951C132.388 12.4714 133.022 11.5594 133.396 10.5421C133.769 9.5247 133.87 8.43427 133.69 7.37005C133.643 7.05824 133.575 6.74975 133.485 6.4466C133.447 6.30118 133.397 6.15869 133.337 6.02037C133.32 5.94489 133.285 5.87447 133.233 5.81554C133.181 5.7566 133.114 5.71101 133.039 5.68294V5.71847Z" fill="black"/>
<path d="M156.674 6.89025C156.221 6.18098 155.58 5.59889 154.815 5.20314C154.347 4.98595 153.844 4.84773 153.327 4.79466C152.792 4.70399 152.244 4.70399 151.709 4.79466C151.259 4.88834 150.823 5.03137 150.407 5.22089C149.989 5.40121 149.59 5.62134 149.217 5.87797C147.395 7.20765 146.019 9.01596 145.256 11.0814C144.428 13.1056 144.259 15.3218 144.773 17.4391C144.773 17.6345 144.866 17.7943 144.922 17.9541L145.089 18.3981C145.082 18.4512 145.082 18.5049 145.089 18.5579V18.6823C145.332 19.2251 145.672 19.7238 146.093 20.1563C146.579 20.7024 147.203 21.12 147.907 21.3688C148.61 21.6177 149.369 21.6893 150.11 21.577C151.159 21.4181 152.154 21.0224 153.011 20.4227C154.695 19.187 155.983 17.5261 156.73 15.6277C157.576 13.7055 157.858 11.6001 157.548 9.53633C157.394 8.57066 157.033 7.64568 156.488 6.8192L156.674 6.89025ZM154.777 4.79466C155.616 5.20499 156.327 5.81714 156.842 6.57057C157.409 7.44167 157.782 8.41493 157.939 9.42978C158.26 11.5591 157.971 13.7317 157.102 15.7165C156.302 17.6941 154.936 19.4171 153.16 20.689C152.248 21.3126 151.198 21.726 150.091 21.8967C149.1 22.042 148.085 21.8867 147.19 21.4527C146.632 21.1784 146.133 20.8047 145.721 20.3516C145.273 19.8956 144.914 19.3662 144.661 18.7888V18.6823L144.55 18.4691L144.401 18.0252L144.234 17.4746C143.697 15.2866 143.872 12.9943 144.736 10.9038C145.524 8.77893 146.954 6.92492 148.845 5.57607C149.232 5.30586 149.643 5.06819 150.073 4.86571C150.521 4.67287 150.988 4.52411 151.467 4.42174C152.041 4.30142 152.632 4.27142 153.215 4.33294C153.824 4.39918 154.416 4.56751 154.963 4.83019L154.777 4.79466ZM153.067 7.10335C153.097 6.52364 153.283 5.96109 153.606 5.46952H153.699C153.837 5.50276 153.957 5.58539 154.034 5.70039C154.093 5.77752 154.143 5.86095 154.182 5.94902V6.16212V6.41075L154.294 6.85472L154.387 7.33422C154.588 8.41062 154.492 9.51855 154.108 10.5486C153.73 11.6065 153.093 12.5626 152.248 13.3368L151.895 13.6565C150.751 14.6032 149.902 15.8319 149.44 17.2083C149.122 18.0931 148.916 19.0113 148.827 19.9432C148.804 20.1844 148.755 20.4226 148.678 20.6535C148.585 20.9199 148.418 21.0975 148.157 21.0087C147.897 20.9199 147.562 19.7656 147.469 19.2328V19.0907C147.409 18.768 147.371 18.4416 147.358 18.114C147.339 17.7709 147.339 17.4271 147.358 17.0839C147.4 16.3005 147.589 15.5306 147.916 14.8108C148.228 14.1367 148.684 13.532 149.255 13.0349L149.98 12.3778C150.7 11.7464 151.326 11.0233 151.839 10.2289C152.314 9.45845 152.671 8.62723 152.899 7.76043C153.197 7.60059 153.215 7.40527 153.253 7.1744L153.067 7.10335ZM153.773 5.86022C153.622 6.27986 153.522 6.71492 153.476 7.15662C153.476 7.40525 153.476 7.61835 153.364 7.76043C153.125 8.66593 152.749 9.53339 152.248 10.3355C151.746 11.1637 151.119 11.9175 150.389 12.5731L149.645 13.2125C149.112 13.721 148.689 14.3244 148.399 14.9884C148.098 15.6708 147.921 16.3977 147.878 17.1372C147.86 17.4685 147.86 17.8005 147.878 18.1317C147.878 18.4692 147.878 18.7888 147.99 19.0552V19.1973C147.99 19.6413 148.269 20.618 148.418 20.6535C148.566 20.6891 148.418 20.6535 148.418 20.547C148.483 20.3384 148.526 20.1243 148.548 19.9077C148.654 18.9536 148.866 18.0129 149.18 17.1017C149.526 16.181 150.022 15.318 150.649 14.5444C150.987 14.1525 151.353 13.7845 151.746 13.4434L152.1 13.1414C152.93 12.4125 153.568 11.5056 153.959 10.4953C154.309 9.52551 154.398 8.48763 154.22 7.4763V6.9968L154.108 6.57057L153.978 6.14437C153.984 6.09717 153.984 6.0495 153.978 6.00229L153.773 5.86022Z" fill="black"/>
<path d="M177.557 6.89031C177.107 6.17886 176.465 5.59615 175.698 5.2032C175.231 4.98359 174.728 4.84525 174.21 4.79473C173.675 4.70406 173.127 4.70406 172.592 4.79473C172.144 4.89115 171.707 5.03407 171.291 5.22095C170.88 5.40539 170.488 5.62533 170.119 5.87803C168.297 7.20771 166.921 9.01602 166.158 11.0815C165.332 13.1058 165.158 15.3194 165.656 17.4392C165.656 17.6346 165.768 17.7944 165.823 17.9542L165.972 18.3982V18.558V18.6823C166.209 19.2246 166.542 19.7233 166.958 20.1563C167.341 20.5707 167.801 20.9138 168.315 21.1686C169.139 21.5565 170.065 21.6988 170.975 21.577C172.025 21.4216 173.02 21.0255 173.875 20.4227C175.568 19.1953 176.858 17.5317 177.595 15.6278C178.449 13.708 178.733 11.6001 178.413 9.5364C178.255 8.57445 177.901 7.65138 177.372 6.81926L177.557 6.89031ZM175.661 4.79473C176.494 5.20554 177.199 5.81791 177.706 6.57063C178.271 7.44463 178.65 8.41613 178.822 9.42985C179.143 11.5591 178.854 13.7318 177.985 15.7166C177.185 17.6941 175.819 19.4171 174.043 20.6891C173.126 21.3158 172.069 21.7294 170.956 21.8967C169.964 22.0409 168.95 21.8857 168.055 21.4527C167.496 21.1785 166.998 20.8048 166.586 20.3517C166.144 19.891 165.785 19.3627 165.526 18.7889V18.6823C165.487 18.6147 165.456 18.5432 165.433 18.4692L165.266 18.0252L165.098 17.4747C164.577 15.2842 164.759 12.9946 165.619 10.9039C166.4 8.78026 167.824 6.926 169.71 5.57613C170.103 5.30578 170.52 5.06813 170.956 4.86578C171.396 4.6703 171.858 4.52142 172.332 4.4218C172.912 4.30266 173.509 4.27268 174.099 4.333C174.707 4.39924 175.299 4.56757 175.847 4.83025L175.661 4.79473ZM173.95 7.10341C173.967 6.52407 174.147 5.95976 174.471 5.46958H174.582C174.721 5.50282 174.84 5.58545 174.917 5.70046C174.978 5.77352 175.023 5.85829 175.047 5.94908V6.16218V6.41081L175.159 6.85478V7.33429C175.341 8.41145 175.246 9.51493 174.88 10.5487C174.494 11.6028 173.857 12.5571 173.02 13.3368L172.667 13.6565C172.292 13.98 171.944 14.3303 171.625 14.7043C171.017 15.4418 170.54 16.2698 170.212 17.1551C169.902 18.0421 169.696 18.9594 169.598 19.8899C169.576 20.1312 169.526 20.3694 169.45 20.6003C169.357 20.8667 169.208 21.0443 168.948 20.9555C168.687 20.8667 168.352 19.7124 168.241 19.1796V19.0375C168.241 18.7711 168.148 18.4159 168.111 18.0608C168.092 17.7176 168.092 17.3738 168.111 17.0307C168.153 16.2473 168.342 15.4774 168.669 14.7576C168.993 14.0899 169.447 13.4873 170.008 12.9817L170.751 12.3246C171.478 11.6988 172.104 10.9748 172.611 10.1757C173.092 9.40856 173.45 8.57634 173.671 7.70721C174.061 7.60066 174.099 7.40533 174.136 7.17446L173.95 7.10341ZM174.657 5.86028C174.489 6.27635 174.382 6.71265 174.34 7.15669C174.34 7.40531 174.34 7.61842 174.229 7.76049C173.996 8.66526 173.627 9.53278 173.132 10.3356C172.617 11.1558 171.992 11.908 171.272 12.5732L170.528 13.2125C169.995 13.7211 169.572 14.3244 169.282 14.9884C168.981 15.6708 168.805 16.3977 168.762 17.1373C168.743 17.4685 168.743 17.8005 168.762 18.1318C168.776 18.4418 168.813 18.7503 168.873 19.0553V19.1973C168.873 19.6413 169.152 20.6181 169.301 20.6536C169.45 20.6891 169.301 20.6536 169.301 20.547C169.366 20.3385 169.41 20.1244 169.431 19.9077C169.519 18.951 169.731 18.0084 170.063 17.1018C170.395 16.1746 170.892 15.3094 171.532 14.5445C171.86 14.1441 172.227 13.7754 172.63 13.4434L172.983 13.1415C173.814 12.4134 174.452 11.5062 174.842 10.4954C175.201 9.52753 175.291 8.48727 175.103 7.47636V6.99686L175.14 6.60616L174.991 6.17993C174.998 6.13279 174.998 6.085 174.991 6.03786L174.657 5.86028Z" fill="black"/>
<path d="M198.441 6.8903C197.981 6.1862 197.341 5.60557 196.581 5.2032C196.115 4.98359 195.611 4.84524 195.093 4.79472C194.558 4.70405 194.011 4.70405 193.476 4.79472C193.026 4.88839 192.589 5.03143 192.174 5.22095C191.761 5.40136 191.368 5.62152 191.002 5.87802C189.169 7.20154 187.785 9.01133 187.023 11.0814C186.203 13.1076 186.035 15.3212 186.539 17.4392C186.581 17.6147 186.637 17.7868 186.707 17.9542L186.855 18.3982C186.848 18.4512 186.848 18.5049 186.855 18.558V18.6823C187.106 19.2217 187.445 19.7194 187.86 20.1563C188.345 20.7025 188.97 21.1201 189.673 21.3689C190.377 21.6177 191.135 21.6894 191.876 21.577C192.927 21.4216 193.922 21.0255 194.777 20.4227C196.461 19.1871 197.749 17.5262 198.496 15.6278C199.342 13.7056 199.625 11.6001 199.315 9.53639C199.157 8.57444 198.803 7.65137 198.273 6.81925L198.441 6.8903ZM196.711 4.83024C197.549 5.24058 198.261 5.85272 198.775 6.60615C199.343 7.47725 199.716 8.45051 199.873 9.46536C200.194 11.5946 199.905 13.7673 199.036 15.7521C198.235 17.7296 196.869 19.4526 195.093 20.7246C194.184 21.3517 193.133 21.7654 192.025 21.9322C191.033 22.0776 190.019 21.9223 189.124 21.4883C188.565 21.214 188.067 20.8403 187.655 20.3872C187.213 19.9265 186.854 19.3982 186.595 18.8244V18.7179L186.483 18.5047L186.335 18.0608L186.167 17.5102C185.689 15.3055 185.868 13.0169 186.683 10.9042C187.498 8.79156 188.917 6.93952 190.779 5.55837C191.17 5.28421 191.587 5.04632 192.025 4.84799C192.465 4.65251 192.927 4.50364 193.401 4.40402C193.975 4.2837 194.565 4.25373 195.149 4.31524C195.695 4.40641 196.223 4.58026 196.711 4.83024ZM195.019 7.13893C195.036 6.55959 195.216 5.99528 195.54 5.5051H195.633C195.774 5.54305 195.898 5.62413 195.986 5.73595L196.116 5.98457V6.1977V6.44633L196.228 6.8903V7.36978C196.429 8.44618 196.333 9.55413 195.949 10.5842C195.571 11.6421 194.933 12.5981 194.089 13.3724L193.736 13.692C192.592 14.6387 191.743 15.8674 191.281 17.2439C190.962 18.1286 190.756 19.0469 190.668 19.9787C190.645 20.22 190.595 20.4582 190.519 20.6891C190.519 20.9555 190.258 21.1331 189.998 21.0443C189.738 20.9555 189.422 19.8012 189.31 19.2684V19.1263C189.249 18.8036 189.212 18.4772 189.198 18.1496C189.18 17.8064 189.18 17.4626 189.198 17.1195C189.241 16.3361 189.43 15.5662 189.756 14.8464C190.074 14.175 190.529 13.5712 191.095 13.0705L191.82 12.4134C192.541 11.782 193.166 11.0589 193.68 10.2645C194.155 9.49403 194.511 8.66281 194.74 7.79601C194.945 7.60066 194.982 7.40532 195.019 7.17446V7.13893ZM195.726 5.8958C195.558 6.31187 195.451 6.74817 195.409 7.19221C195.409 7.44083 195.409 7.65393 195.298 7.79601C195.059 8.70151 194.683 9.56895 194.182 10.3711C193.679 11.1992 193.053 11.953 192.323 12.6087L191.597 13.2481C191.052 13.7464 190.626 14.3525 190.351 15.024C190.035 15.7026 189.852 16.431 189.812 17.1728C189.785 17.5038 189.785 17.8363 189.812 18.1673C189.827 18.4772 189.864 18.7858 189.924 19.0908V19.2329C190.017 19.6768 190.203 20.6536 190.37 20.6891C190.537 20.7246 190.37 20.6891 190.37 20.5825C190.43 20.3736 190.467 20.1594 190.482 19.9432C190.587 18.9891 190.799 18.0485 191.114 17.1373C191.46 16.2165 191.956 15.3535 192.583 14.58C192.92 14.1881 193.287 13.8201 193.68 13.4789L194.033 13.177C194.864 12.4481 195.501 11.5411 195.893 10.5309C196.242 9.56109 196.332 8.52318 196.153 7.51186L196.06 7.03238C196.032 6.88834 195.995 6.74601 195.949 6.60615L195.819 6.17992C195.794 6.12878 195.763 6.08098 195.726 6.03785V5.8958Z" fill="black"/>
</svg>
