<svg width="395" height="49" viewBox="0 0 395 49" fill="none" xmlns="http://www.w3.org/2000/svg">
<path d="M12.4319 41.816C11.5999 41.816 10.8799 41.496 10.2719 40.856C9.69588 40.216 9.37588 39.432 9.31188 38.504C9.11988 37.16 8.99188 35 8.92788 32.024L8.83188 29.048C8.83188 28.216 8.57588 27.416 8.06388 26.648C7.55188 25.848 6.89588 25.384 6.09588 25.256C6.31988 31.912 6.43188 36.84 6.43188 40.04C6.43188 40.936 6.11188 41.384 5.47188 41.384C5.21588 41.384 4.95988 41.32 4.70388 41.192C4.09588 40.904 3.83988 40.44 3.93588 39.8C4.19188 37.912 4.31988 36.04 4.31988 34.184C4.31988 32.84 4.27188 31.432 4.17588 29.96C4.14388 29.256 4.12788 28.184 4.12788 26.744C4.09588 26.296 4.07988 25.592 4.07988 24.632C3.95188 19.384 3.80788 15.432 3.64788 12.776C3.55188 11.176 3.31188 9.128 2.92788 6.632C2.89588 6.504 2.87988 6.312 2.87988 6.056C2.87988 5.064 3.29588 4.488 4.12788 4.328C4.60788 4.232 4.99188 4.376 5.27988 4.76C5.59988 5.112 5.77588 5.576 5.80788 6.152C5.83988 6.568 5.87188 7.064 5.90388 7.64C5.93588 8.184 5.95188 8.616 5.95188 8.936L5.99988 10.52C6.06388 12.376 6.09588 13.736 6.09588 14.6V23.144C6.38388 22.472 6.73588 21.432 7.15188 20.024C7.56788 18.616 7.88788 17.416 8.11188 16.424C8.20788 15.912 8.30388 15.288 8.39988 14.552C8.52788 13.816 8.62388 13.256 8.68788 12.872C8.91188 10.824 9.19988 9.176 9.55188 7.928C9.96788 6.456 10.7519 5.384 11.9039 4.712C12.3839 4.424 12.7839 4.28 13.1039 4.28C13.3279 4.28 13.6319 4.36 14.0159 4.52C14.5279 4.744 14.7839 5.224 14.7839 5.96C14.7839 6.504 14.4479 6.856 13.7759 7.016C12.4959 7.24 11.6639 8.088 11.2799 9.56C11.0559 10.456 10.8479 11.432 10.6559 12.488C10.4319 13.896 10.2399 14.808 10.0799 15.224C9.53588 16.888 9.23188 18.232 9.16788 19.256C9.07188 20.12 8.92788 20.888 8.73588 21.56C8.54388 22.2 8.23988 22.744 7.82388 23.192C8.62388 23.32 9.31188 23.88 9.88788 24.872C10.4639 25.864 10.8319 27.16 10.9919 28.76C11.1199 29.88 11.3279 32.312 11.6159 36.056L11.7119 37.112C11.8079 37.912 12.1919 38.36 12.8639 38.456C13.3759 38.616 13.7439 38.824 13.9679 39.08C14.1919 39.304 14.3039 39.624 14.3039 40.04C14.3039 40.552 14.1279 40.968 13.7759 41.288C13.4239 41.64 12.9759 41.816 12.4319 41.816ZM24.7315 41.912C23.8995 41.912 23.1315 41.64 22.4275 41.096C21.7235 40.584 21.1475 39.88 20.6995 38.984C19.7715 37.032 19.1955 34.904 18.9715 32.6C18.6835 30.424 18.5395 28.328 18.5395 26.312C18.5395 25.928 18.5555 25.608 18.5875 25.352V24.488C18.5875 24.328 18.5715 24.248 18.5395 24.248V23.384L18.5875 20.024C18.6195 19 18.7475 17.368 18.9715 15.128C19.1315 13.592 19.4995 12.104 20.0755 10.664C20.2995 10.024 20.5875 9.544 20.9395 9.224C21.2915 8.872 21.6915 8.696 22.1395 8.696C23.4195 8.696 24.5715 8.936 25.5955 9.416C26.6195 9.864 27.4835 10.504 28.1875 11.336C28.8275 12.136 29.3715 13.128 29.8195 14.312C30.2675 15.464 30.5875 16.696 30.7795 18.008C30.9715 19.352 31.0675 20.776 31.0675 22.28V22.664C31.0675 23.656 31.0835 24.552 31.1155 25.352L31.1635 28.088C31.1635 37.304 29.0195 41.912 24.7315 41.912ZM24.5395 39.896C25.1155 39.896 25.6435 39.672 26.1235 39.224C26.6035 38.744 26.9715 38.104 27.2275 37.304C27.8355 35.672 28.2035 33.912 28.3315 32.024C28.4915 30.392 28.5715 28.984 28.5715 27.8C28.5715 26.36 28.4595 24.472 28.2355 22.136C28.0435 19.672 27.9475 17.832 27.9475 16.616V15.752C27.8835 14.536 27.4675 13.48 26.6995 12.584C25.9635 11.688 25.0515 11.24 23.9635 11.24C22.8755 11.24 22.1555 11.864 21.8035 13.112C21.4835 14.104 21.3235 15.384 21.3235 16.952C21.3235 17.56 21.3395 18.072 21.3715 18.488V19.784L21.2755 21.992C21.2115 22.664 21.1795 23.4 21.1795 24.2C21.1795 25.928 21.2275 27.64 21.3235 29.336C21.4515 31.736 21.7715 34.072 22.2835 36.344C22.7955 38.712 23.5475 39.896 24.5395 39.896ZM39.1004 40.232L39.0524 38.36C39.0204 37.816 39.0044 37.208 39.0044 36.536L39.0524 34.904C38.9564 34.552 38.7164 31.048 38.3324 24.392C37.9484 17.736 37.7244 13.464 37.6604 11.576C35.8044 11.512 34.6204 11.32 34.1084 11C33.7564 10.744 33.5804 10.456 33.5804 10.136C33.5804 9.88 33.7404 9.656 34.0604 9.464C34.4124 9.24 34.7644 9.128 35.1164 9.128C36.0124 9.128 37.1004 9.192 38.3804 9.32C39.5964 9.48 40.6844 9.56 41.6444 9.56H42.0284H42.4124C43.4044 9.56 43.9004 9.944 43.9004 10.712C43.9004 11.096 43.7404 11.416 43.4204 11.672C43.1004 11.896 42.7324 12.008 42.3164 12.008C42.0284 12.008 41.6124 11.96 41.0684 11.864L40.1084 11.672L40.0604 11.912L40.0124 12.152C40.0124 15 40.2844 19.544 40.8284 25.784C41.3404 31.64 41.5964 36.184 41.5964 39.416C41.5964 39.8 41.4204 40.136 41.0684 40.424C40.7484 40.712 40.3804 40.856 39.9644 40.856L39.1004 40.232ZM54.3096 41.912C53.4776 41.912 52.7096 41.64 52.0056 41.096C51.3016 40.584 50.7256 39.88 50.2776 38.984C49.3496 37.032 48.7736 34.904 48.5496 32.6C48.2616 30.424 48.1176 28.328 48.1176 26.312C48.1176 25.928 48.1336 25.608 48.1656 25.352V24.488C48.1656 24.328 48.1496 24.248 48.1176 24.248V23.384L48.1656 20.024C48.1976 19 48.3256 17.368 48.5496 15.128C48.7096 13.592 49.0776 12.104 49.6536 10.664C49.8776 10.024 50.1656 9.544 50.5176 9.224C50.8696 8.872 51.2696 8.696 51.7176 8.696C52.9976 8.696 54.1496 8.936 55.1736 9.416C56.1976 9.864 57.0616 10.504 57.7656 11.336C58.4056 12.136 58.9496 13.128 59.3976 14.312C59.8456 15.464 60.1656 16.696 60.3576 18.008C60.5496 19.352 60.6456 20.776 60.6456 22.28V22.664C60.6456 23.656 60.6616 24.552 60.6936 25.352L60.7416 28.088C60.7416 37.304 58.5976 41.912 54.3096 41.912ZM54.1176 39.896C54.6936 39.896 55.2216 39.672 55.7016 39.224C56.1816 38.744 56.5496 38.104 56.8056 37.304C57.4136 35.672 57.7816 33.912 57.9096 32.024C58.0696 30.392 58.1496 28.984 58.1496 27.8C58.1496 26.36 58.0376 24.472 57.8136 22.136C57.6216 19.672 57.5256 17.832 57.5256 16.616V15.752C57.4616 14.536 57.0456 13.48 56.2776 12.584C55.5416 11.688 54.6296 11.24 53.5416 11.24C52.4536 11.24 51.7336 11.864 51.3816 13.112C51.0616 14.104 50.9016 15.384 50.9016 16.952C50.9016 17.56 50.9176 18.072 50.9496 18.488V19.784L50.8536 21.992C50.7896 22.664 50.7576 23.4 50.7576 24.2C50.7576 25.928 50.8056 27.64 50.9016 29.336C51.0296 31.736 51.3496 34.072 51.8616 36.344C52.3736 38.712 53.1256 39.896 54.1176 39.896ZM67.0465 41.336C66.6305 39.64 66.4225 37.288 66.4225 34.28L66.5185 30.008C66.5825 28.728 66.6145 27.304 66.6145 25.736C66.4225 25.288 66.3265 24.888 66.3265 24.536V24.392C66.6465 23.784 66.8065 22.408 66.8065 20.264L66.8545 18.056C66.8865 17.352 66.9025 16.568 66.9025 15.704C66.9025 13.816 66.7745 12.328 66.5185 11.24C66.6145 10.792 66.7745 10.408 66.9985 10.088C67.2225 9.736 67.4945 9.56 67.8145 9.56H69.9265C70.8225 9.56 71.6065 9.768 72.2785 10.184C72.9505 10.568 73.4625 11.128 73.8145 11.864C74.4545 13.176 74.7745 14.728 74.7745 16.52C74.7745 17.8 74.7585 18.808 74.7265 19.544C74.6625 20.472 74.5025 21.32 74.2465 22.088C74.1505 22.504 74.0065 22.856 73.8145 23.144C73.6545 23.4 73.4145 23.72 73.0945 24.104C72.6465 24.648 71.9105 25.16 70.8865 25.64C70.4705 25.864 69.9265 26.072 69.2545 26.264V31.4L69.3505 34.472L69.4465 35.96C69.5745 37.752 69.6385 39.272 69.6385 40.52C69.6385 40.904 69.4785 41.224 69.1585 41.48C68.8385 41.768 68.4705 41.912 68.0545 41.912L67.0465 41.336ZM69.3025 24.296C71.1905 24.008 72.1345 21.304 72.1345 16.184C72.1345 15.256 72.0865 14.536 71.9905 14.024C71.8945 13.64 71.7665 13.336 71.6065 13.112C71.4465 12.856 71.2065 12.648 70.8865 12.488C70.5345 12.296 70.1505 12.2 69.7345 12.2C69.7345 12.168 69.5585 12.152 69.2065 12.152V14.888C69.2065 16.776 69.2225 18.456 69.2545 19.928C69.2545 21.592 69.2705 22.68 69.3025 23.192V24.2V24.296ZM92.3545 41.48C91.4265 41.48 90.9625 41.128 90.9625 40.424C90.9625 40.264 90.9625 39.928 90.9625 39.416C90.9625 38.904 90.9945 38.424 91.0585 37.976C91.1865 36.824 91.2505 35.464 91.2505 33.896C91.2505 32.392 91.1865 30.36 91.0585 27.8C90.9945 26.36 90.9305 24.136 90.8665 21.128L90.7225 15.272L90.6745 13.256L90.6265 9.656C90.6265 9.144 90.9145 8.856 91.4905 8.792C92.0665 8.76 92.5465 8.92 92.9305 9.272C93.3145 9.624 93.5065 10.072 93.5065 10.616C93.5065 11.416 93.4745 12.68 93.4105 14.408L93.2665 26.744C93.2345 27.16 93.2185 27.72 93.2185 28.424C93.2505 29.128 93.2665 29.816 93.2665 30.488V33.368V35.096C93.2025 37.112 93.2825 38.792 93.5065 40.136C93.5705 40.584 93.4905 40.92 93.2665 41.144C93.0745 41.368 92.7705 41.48 92.3545 41.48ZM81.0745 41.48C80.6265 41.48 80.2265 41.416 79.8745 41.288C79.5225 41.16 79.3625 40.84 79.3945 40.328C79.4585 39.592 79.5065 38.68 79.5385 37.592C79.5705 36.504 79.5865 35.752 79.5865 35.336C79.5865 33.512 79.6345 31.592 79.7305 29.576C79.7945 28.808 79.8265 27.592 79.8265 25.928C79.8265 25 79.8105 23.896 79.7785 22.616C79.7465 21.336 79.7145 20.376 79.6825 19.736C79.6505 19.192 79.6185 18.552 79.5865 17.816C79.5545 17.08 79.5385 16.264 79.5385 15.368C79.4745 14.28 79.4425 13.432 79.4425 12.824L79.3945 11.576C79.3945 11.416 79.3945 11.096 79.3945 10.616C79.3945 10.104 79.4745 9.704 79.6345 9.416C79.8265 9.128 80.1465 8.984 80.5945 8.984C81.0105 8.984 81.3625 9.16 81.6505 9.512C81.9385 9.832 82.0825 10.216 82.0825 10.664C82.0825 11.016 82.1145 11.608 82.1785 12.44C82.2425 13.912 82.2745 15.08 82.2745 15.944C82.2745 17 82.1945 18.04 82.0345 19.064C81.9705 19.256 81.9385 19.576 81.9385 20.024C81.9385 20.408 81.9705 20.952 82.0345 21.656C82.2905 21.752 82.8345 21.96 83.6665 22.28C84.4985 22.568 85.2185 22.92 85.8265 23.336C86.4345 23.72 86.9145 24.168 87.2665 24.68C88.3545 26.44 88.8985 27.96 88.8985 29.24C88.8985 31.224 88.7545 33.432 88.4665 35.864C88.3065 37.304 87.8425 38.376 87.0745 39.08C86.3065 39.784 85.1865 40.392 83.7145 40.904C83.3305 41.032 82.8665 41.144 82.3225 41.24C81.7785 41.336 81.3625 41.416 81.0745 41.48ZM82.0345 38.888C82.4185 38.952 82.7065 38.984 82.8985 38.984C83.5385 38.984 84.0665 38.76 84.4825 38.312C85.6025 37.224 86.1625 35.928 86.1625 34.424C86.2265 32.952 86.2585 31.624 86.2585 30.44C86.2585 28.328 86.0985 26.968 85.7785 26.36C85.5545 25.656 85.1065 25.064 84.4345 24.584C83.7625 24.104 82.9945 23.768 82.1305 23.576C81.9065 25.848 81.7945 28.392 81.7945 31.208C81.7945 33.608 81.8745 36.168 82.0345 38.888ZM100.808 40.904C100.392 40.776 100.168 40.504 100.136 40.088V39.368C100.072 38.024 100.008 36.008 99.9438 33.32C99.8158 30.984 99.7358 29.192 99.7038 27.944C99.6078 25.992 99.4958 23.064 99.3678 19.16C99.3358 18.488 99.3038 17.56 99.2718 16.376C99.2398 15.192 99.2238 14.296 99.2238 13.688C99.1918 13.336 99.1758 12.84 99.1758 12.2C99.1758 11.464 99.2078 10.92 99.2718 10.568C99.3998 9.576 99.9438 9.112 100.904 9.176C101.8 9.176 102.28 9.688 102.344 10.712V11.288L102.296 23.384V29.096V31.976C102.296 32.424 102.328 32.952 102.392 33.56C102.456 34.136 102.504 34.552 102.536 34.808C102.696 33.88 102.952 32.936 103.304 31.976C103.688 30.984 103.928 30.376 104.024 30.152C104.504 29 104.856 28.056 105.08 27.32C105.848 24.856 106.84 21.832 108.056 18.248C108.312 17.512 108.6 16.616 108.92 15.56C109.784 12.84 110.376 11.08 110.696 10.28C110.984 9.512 111.416 9.032 111.992 8.84C112.28 8.744 112.568 8.696 112.856 8.696C113.304 8.696 113.768 8.84 114.248 9.128V11.432C114.248 13.832 114.296 16.312 114.392 18.872C114.424 19.416 114.44 20.232 114.44 21.32V22.712C114.44 23 114.424 23.384 114.392 23.864C114.392 24.344 114.408 24.904 114.44 25.544L114.584 38.504C114.584 38.984 114.472 39.512 114.248 40.088C114.152 40.344 113.992 40.552 113.768 40.712C113.544 40.84 113.304 40.904 113.048 40.904C112.152 40.904 111.704 40.488 111.704 39.656C111.704 38.696 111.752 37.768 111.848 36.872C111.912 35.656 111.944 34.728 111.944 34.088C111.88 27.752 111.8 23.016 111.704 19.88C111.704 19.4 111.64 18.616 111.512 17.528L111.368 15.8C111.08 16.12 110.92 16.328 110.888 16.424L110.12 18.776C109.608 20.44 109.208 21.672 108.92 22.472L104.744 34.088L102.584 39.992C102.328 40.664 101.944 41 101.432 41C101.336 41 101.128 40.968 100.808 40.904ZM105.656 6.296C104.888 6.296 104.152 5.992 103.448 5.384C102.776 4.776 102.44 4.104 102.44 3.368C102.44 3.048 102.536 2.792 102.728 2.6C102.92 2.408 103.192 2.296 103.544 2.264C103.96 2.232 104.312 2.264 104.6 2.36C104.92 2.424 105.208 2.616 105.464 2.936C105.752 3.288 106.056 3.464 106.376 3.464C106.728 3.464 107.064 3.224 107.384 2.744C107.512 2.52 107.624 2.328 107.72 2.168C107.816 1.976 107.896 1.816 107.96 1.688C108.312 1.08 108.728 0.775997 109.208 0.775997C109.272 0.775997 109.4 0.807998 109.592 0.871999C109.848 0.999999 110.056 1.192 110.216 1.448C110.376 1.672 110.456 1.928 110.456 2.216C110.456 2.408 110.408 2.6 110.312 2.792C110.28 2.888 110.248 2.984 110.216 3.08C110.184 3.144 110.152 3.208 110.12 3.272C109.768 4.392 109.208 5.176 108.44 5.624C107.704 6.072 106.776 6.296 105.656 6.296ZM128.795 42.056C128.539 42.056 128.315 41.976 128.123 41.816C127.931 41.656 127.787 41.448 127.691 41.192C127.659 41.128 127.643 41.032 127.643 40.904C127.643 40.488 127.867 40.152 128.315 39.896C129.211 39.512 129.883 38.936 130.331 38.168C130.811 37.368 131.147 36.44 131.339 35.384C131.915 32.248 132.203 28.84 132.203 25.16C132.203 23.784 132.187 22.744 132.155 22.04C131.931 16.632 131.739 12.824 131.579 10.616V10.424C131.579 10.136 131.643 9.912 131.771 9.752C131.899 9.592 132.123 9.48 132.443 9.416C134.491 9.032 136.123 8.84 137.339 8.84C137.979 8.84 138.459 8.856 138.779 8.888C139.515 8.92 140.075 9.144 140.459 9.56C140.843 9.976 141.035 10.552 141.035 11.288L141.083 13.832C141.147 16.072 141.179 17.752 141.179 18.872L141.131 21.176C141.131 24.568 141.259 28.856 141.515 34.04C141.643 36.376 141.755 38.184 141.851 39.464C141.883 40.04 141.787 40.456 141.563 40.712C141.371 40.968 141.035 41.128 140.555 41.192C139.499 41.256 138.939 40.76 138.875 39.704C138.971 38.776 139.019 37.848 139.019 36.92C139.019 35.992 139.003 35.224 138.971 34.616L138.923 29.144C138.923 26.488 138.875 23.768 138.779 20.984C138.715 18.68 138.619 16.504 138.491 14.456C138.363 12.408 138.235 11.16 138.107 10.712C137.915 10.744 137.515 10.824 136.907 10.952C136.299 11.08 135.467 11.192 134.411 11.288C134.315 12.76 134.267 13.816 134.267 14.456C134.267 15.192 134.315 15.832 134.411 16.376C134.475 17.24 134.539 18.504 134.603 20.168V21.224C134.603 26.408 134.555 29.912 134.459 31.736C134.395 32.248 134.363 32.648 134.363 32.936C134.235 34.28 134.107 35.304 133.979 36.008C133.659 37.704 132.683 39.432 131.051 41.192C130.603 41.704 129.883 41.992 128.891 42.056H128.795ZM150.136 41.624C149.72 41.624 149.336 41.48 148.984 41.192C148.664 40.904 148.488 40.552 148.456 40.136V38.888V37.928C148.424 37.64 148.408 37.304 148.408 36.92C148.408 36.248 148.36 35.224 148.264 33.848L148.168 30.776C148.168 29.208 148.216 26.872 148.312 23.768C148.44 20.984 148.504 18.648 148.504 16.76C148.504 16.312 148.456 15.64 148.36 14.744C148.264 13.816 148.216 13.144 148.216 12.728C148.216 10.456 148.888 9.32 150.232 9.32C151.288 9.32 152.504 9.528 153.88 9.944C155.288 10.36 155.992 10.856 155.992 11.432C155.992 11.752 155.848 12.056 155.56 12.344C155.304 12.6 154.984 12.808 154.6 12.968C153.256 12.488 152.04 12.168 150.952 12.008C150.984 12.488 151 13.176 151 14.072C151 15.352 150.984 16.504 150.952 17.528C150.856 19.064 150.808 20.216 150.808 20.984L150.952 21.752L151.72 21.704C151.976 21.672 152.296 21.656 152.68 21.656C154.216 21.656 154.984 22.104 154.984 23C154.984 23.352 154.84 23.656 154.552 23.912C154.264 24.136 153.896 24.248 153.448 24.248C152.872 24.248 152.424 24.216 152.104 24.152H150.904C150.968 24.984 151 26.2 151 27.8C151 29.4 150.984 30.84 150.952 32.12C150.856 34.072 150.808 35.528 150.808 36.488C150.808 38.28 150.84 39.176 150.904 39.176L152.488 39.128C153.032 39.096 153.688 39.08 154.456 39.08C155.672 39.08 156.28 39.464 156.28 40.232C156.28 40.68 156.072 41.016 155.656 41.24C155.272 41.496 154.792 41.624 154.216 41.624H150.136ZM162.001 41.384C161.969 41.256 161.905 41.032 161.809 40.712C161.745 40.392 161.729 40.12 161.761 39.896C161.825 36.184 161.921 33.416 162.049 31.592C162.081 30.92 162.097 29.928 162.097 28.616C162.097 26.248 161.985 23.384 161.761 20.024C161.569 15.928 161.473 12.824 161.473 10.712C161.473 10.232 161.665 9.8 162.049 9.416C162.433 9.032 162.897 8.84 163.441 8.84C165.265 8.84 166.849 8.984 168.193 9.272C168.833 9.4 169.249 9.624 169.441 9.944C169.633 10.232 169.697 10.728 169.633 11.432C169.185 11.72 168.721 11.864 168.241 11.864C168.081 11.864 167.841 11.832 167.521 11.768C167.233 11.704 166.465 11.64 165.217 11.576H165.121C164.673 11.576 164.449 11.816 164.449 12.296C164.289 16.936 164.209 19.576 164.209 20.216C164.273 23.544 164.337 26.056 164.401 27.752C164.401 27.976 164.417 28.248 164.449 28.568C164.481 28.888 164.481 29.16 164.449 29.384C164.353 30.856 164.305 32.408 164.305 34.04C164.305 36.696 164.353 38.552 164.449 39.608C164.417 40.312 164.305 40.792 164.113 41.048C163.921 41.336 163.569 41.48 163.057 41.48C162.929 41.48 162.577 41.448 162.001 41.384ZM174.88 41.096C174.752 41.064 174.544 41.032 174.256 41C173.968 40.968 173.728 40.888 173.536 40.76C173.056 40.44 172.864 39.896 172.96 39.128L173.008 38.072C173.136 36.344 173.2 35.048 173.2 34.184C173.2 29.16 173.152 24.104 173.056 19.016C173.056 16.392 172.976 13.608 172.816 10.664C172.784 10.152 172.896 9.72 173.152 9.368C173.44 9.016 173.792 8.84 174.208 8.84C174.592 8.84 174.976 9.016 175.36 9.368C175.776 9.72 175.968 10.136 175.936 10.616C175.712 11.576 175.6 13.496 175.6 16.376V20.216C175.6 20.92 175.632 22.04 175.696 23.576C175.792 23.448 176.096 22.856 176.608 21.8C176.672 21.672 176.784 21.48 176.944 21.224C177.104 20.936 177.216 20.648 177.28 20.36C178.336 17.16 179.2 14.696 179.872 12.968C180.16 12.04 180.544 11.256 181.024 10.616C181.504 9.944 182.16 9.48 182.992 9.224C183.28 9.128 183.664 9.16 184.144 9.32C184.656 9.48 184.992 9.672 185.152 9.896C185.344 10.12 185.44 10.392 185.44 10.712C185.44 11.032 185.328 11.32 185.104 11.576C184.912 11.832 184.656 11.992 184.336 12.056C183.536 12.184 182.912 12.472 182.464 12.92C182.016 13.368 181.68 13.848 181.456 14.36C181.264 14.84 181.024 15.576 180.736 16.568L178.816 21.272C178.72 21.496 178.576 21.88 178.384 22.424C178.224 22.968 178.064 23.384 177.904 23.672C177.84 23.768 177.744 23.864 177.616 23.96C177.488 24.056 177.376 24.152 177.28 24.248C177.504 24.088 177.792 24.136 178.144 24.392C178.528 24.648 178.912 25 179.296 25.448C179.552 25.96 179.728 26.52 179.824 27.128C179.952 27.736 180.032 28.088 180.064 28.184C180.128 28.696 180.192 29.08 180.256 29.336C180.64 30.36 180.912 31.304 181.072 32.168C181.232 33 181.344 33.992 181.408 35.144C181.504 36.296 181.824 37.304 182.368 38.168C182.528 38.2 182.704 38.232 182.896 38.264C183.12 38.296 183.36 38.328 183.616 38.36C184.128 38.392 184.464 38.712 184.624 39.32C184.656 39.384 184.672 39.496 184.672 39.656C184.672 40.008 184.512 40.344 184.192 40.664C183.712 41.144 183.104 41.384 182.368 41.384C181.824 41.384 181.296 41.24 180.784 40.952C180.304 40.664 179.952 40.28 179.728 39.8C179.536 39.48 179.376 39.048 179.248 38.504C179.024 37.128 178.832 35.736 178.672 34.328C178.544 32.376 178.4 30.904 178.24 29.912C178.112 28.888 177.808 27.912 177.328 26.984C177.2 26.76 177.072 26.6 176.944 26.504C176.816 26.376 176.64 26.312 176.416 26.312C176.224 26.312 175.984 26.36 175.696 26.456C175.632 28.76 175.6 31 175.6 33.176C175.6 34.552 175.664 36.648 175.792 39.464C175.824 39.816 175.76 40.104 175.6 40.328C175.472 40.52 175.232 40.776 174.88 41.096ZM194.232 41.912C193.4 41.912 192.632 41.64 191.928 41.096C191.224 40.584 190.648 39.88 190.2 38.984C189.272 37.032 188.696 34.904 188.472 32.6C188.184 30.424 188.04 28.328 188.04 26.312C188.04 25.928 188.056 25.608 188.088 25.352V24.488C188.088 24.328 188.072 24.248 188.04 24.248V23.384L188.088 20.024C188.12 19 188.248 17.368 188.472 15.128C188.632 13.592 189 12.104 189.576 10.664C189.8 10.024 190.088 9.544 190.44 9.224C190.792 8.872 191.192 8.696 191.64 8.696C192.92 8.696 194.072 8.936 195.096 9.416C196.12 9.864 196.984 10.504 197.688 11.336C198.328 12.136 198.872 13.128 199.32 14.312C199.768 15.464 200.088 16.696 200.28 18.008C200.472 19.352 200.568 20.776 200.568 22.28V22.664C200.568 23.656 200.584 24.552 200.616 25.352L200.664 28.088C200.664 37.304 198.52 41.912 194.232 41.912ZM194.04 39.896C194.616 39.896 195.144 39.672 195.624 39.224C196.104 38.744 196.472 38.104 196.728 37.304C197.336 35.672 197.704 33.912 197.832 32.024C197.992 30.392 198.072 28.984 198.072 27.8C198.072 26.36 197.96 24.472 197.736 22.136C197.544 19.672 197.448 17.832 197.448 16.616V15.752C197.384 14.536 196.968 13.48 196.2 12.584C195.464 11.688 194.552 11.24 193.464 11.24C192.376 11.24 191.656 11.864 191.304 13.112C190.984 14.104 190.824 15.384 190.824 16.952C190.824 17.56 190.84 18.072 190.872 18.488V19.784L190.776 21.992C190.712 22.664 190.68 23.4 190.68 24.2C190.68 25.928 190.728 27.64 190.824 29.336C190.952 31.736 191.272 34.072 191.784 36.344C192.296 38.712 193.048 39.896 194.04 39.896ZM216.07 41.48C215.366 41.48 214.934 41.176 214.774 40.568C214.646 40.184 214.582 39.64 214.582 38.936C214.582 37.56 214.646 35.864 214.774 33.848C214.934 31.928 215.014 30.216 215.014 28.712C215.014 27.016 215.062 24.472 215.158 21.08L215.254 13.496C215.254 13.208 215.206 12.776 215.11 12.2L214.966 11V10.76C214.966 10.024 215.078 9.48 215.302 9.128C215.526 8.776 215.942 8.6 216.55 8.6C217.382 8.6 218.294 8.84 219.286 9.32C220.278 9.8 220.998 10.408 221.446 11.144C222.374 12.68 222.838 14.6 222.838 16.904C222.838 18.632 222.694 20.088 222.406 21.272C222.118 22.424 221.622 23.496 220.918 24.488C221.782 25.32 222.358 26.392 222.646 27.704C222.966 28.984 223.126 30.6 223.126 32.552C223.126 34.504 222.79 36.2 222.118 37.64C221.35 39.272 220.23 40.392 218.758 41C217.862 41.32 216.966 41.48 216.07 41.48ZM217.606 23.096C219.27 23.064 220.102 21.128 220.102 17.288C220.102 13.16 219.446 11 218.134 10.808C217.782 11.544 217.606 13.272 217.606 15.992V23.096ZM217.318 39.032C218.342 38.808 219.142 38.2 219.718 37.208C220.294 36.216 220.582 35.08 220.582 33.8C220.582 32.456 220.502 31.272 220.342 30.248C220.214 29.448 220.038 28.792 219.814 28.28C219.622 27.736 219.35 27.24 218.998 26.792C218.614 26.312 218.166 26.024 217.654 25.928C217.526 27.752 217.462 30.168 217.462 33.176C217.462 33.368 217.43 33.976 217.366 35L217.27 36.632C217.27 36.696 217.286 36.744 217.318 36.776V36.872V39.032ZM231.294 41.672C230.302 41.672 229.502 41.448 228.894 41C228.286 40.552 227.838 39.848 227.55 38.888C227.454 38.6 227.406 38.296 227.406 37.976C227.406 37.496 227.518 37.112 227.742 36.824C227.966 36.504 228.27 36.36 228.654 36.392C228.942 36.392 229.214 36.504 229.47 36.728C229.726 36.952 229.886 37.224 229.95 37.544C230.046 37.768 230.19 38.328 230.382 39.224C230.542 39.256 230.798 39.272 231.15 39.272C232.462 39.272 233.39 38.68 233.934 37.496C234.222 36.792 234.43 36.008 234.558 35.144C234.718 34.28 234.782 33.496 234.75 32.792C234.782 31.032 234.446 29.128 233.742 27.08C233.454 26.216 232.99 25.768 232.35 25.736C231.198 25.672 230.638 25.256 230.67 24.488C230.638 23.944 230.734 23.56 230.958 23.336C231.214 23.08 231.614 22.904 232.158 22.808C232.478 22.744 232.782 22.616 233.07 22.424C233.358 22.232 233.566 21.992 233.694 21.704C234.11 20.84 234.366 20.136 234.462 19.592C234.558 19.016 234.59 17.896 234.558 16.232C234.526 15.656 234.382 14.984 234.126 14.216C233.87 13.448 233.566 12.856 233.214 12.44C232.83 11.832 232.35 11.528 231.773 11.528C231.326 11.528 230.99 11.656 230.766 11.912C230.574 12.136 230.382 12.456 230.19 12.872C230.03 13.256 229.886 13.576 229.758 13.832C229.47 14.248 229.182 14.456 228.894 14.456C228.798 14.456 228.654 14.424 228.462 14.36C228.142 14.296 227.918 14.152 227.79 13.928C227.662 13.672 227.598 13.32 227.598 12.872C227.598 11.816 228.014 10.904 228.846 10.136C229.678 9.336 230.654 8.936 231.773 8.936C233.662 8.936 235.022 9.944 235.854 11.96C236.27 12.6 236.59 13.4 236.814 14.36C237.07 15.32 237.182 16.168 237.15 16.904C237.086 19.048 236.766 20.824 236.19 22.232C235.678 23.096 235.134 23.736 234.558 24.152C235.422 25.08 236.062 26.296 236.478 27.8C236.894 29.272 237.102 30.872 237.102 32.6C237.102 35.448 236.622 37.672 235.662 39.272C234.734 40.872 233.278 41.672 231.294 41.672ZM241.092 41.432C240.804 41.368 240.564 41.272 240.372 41.144C240.212 41.048 240.116 40.856 240.084 40.568C240.116 40.376 240.196 40.168 240.324 39.944C240.452 39.72 240.58 39.592 240.708 39.56C240.996 39.528 241.204 39.432 241.332 39.272C241.46 39.112 241.572 38.888 241.668 38.6C241.7 38.408 241.796 37.928 241.956 37.16C242.116 36.392 242.212 35.656 242.244 34.952L242.292 34.136C242.292 33.752 242.26 33.208 242.196 32.504C242.132 31.8 242.1 31.288 242.1 30.968C242.1 29.112 242.788 27.288 244.164 25.496C242.308 23.8 241.38 21.944 241.38 19.928V18.392C241.38 16.728 241.508 15.48 241.764 14.648C241.988 13.784 242.404 12.84 243.012 11.816C243.236 11.336 243.54 10.968 243.924 10.712C244.308 10.424 244.724 10.168 245.172 9.944C245.652 9.72 246.02 9.544 246.276 9.416C246.468 9.32 246.74 9.224 247.092 9.128C247.476 9.032 247.78 8.856 248.004 8.6C248.42 8.44 248.836 8.36 249.252 8.36C249.86 8.36 250.388 8.504 250.836 8.792C251.316 9.08 251.556 9.416 251.556 9.8C251.556 11.176 251.524 13.336 251.46 16.28L251.316 23.096L251.268 25.784L251.316 28.472C251.38 29.944 251.508 32.024 251.7 34.712L251.892 37.832C251.924 38.12 251.972 38.44 252.036 38.792C252.1 39.144 252.132 39.432 252.132 39.656C252.132 40.52 251.684 40.952 250.788 40.952C250.404 40.952 250.052 40.856 249.732 40.664C249.444 40.472 249.284 40.2 249.252 39.848C249.156 39.112 249.108 38.36 249.108 37.592L248.964 25.64C247.844 25.832 247.012 26.04 246.468 26.264C245.924 26.488 245.524 26.792 245.268 27.176C245.044 27.528 244.868 28.04 244.74 28.712C244.644 29.128 244.596 29.752 244.596 30.584C244.596 31 244.628 31.592 244.692 32.36L244.74 34.184C244.74 35.56 244.66 36.728 244.5 37.688C244.34 38.616 243.988 39.496 243.444 40.328C243.188 40.744 242.836 41.048 242.388 41.24C241.94 41.432 241.508 41.496 241.092 41.432ZM245.844 24.2C245.972 24.232 246.18 24.248 246.468 24.248C247.14 24.248 248.004 24.104 249.06 23.816C249.06 22.984 249.028 21.704 248.964 19.976C248.868 18.344 248.82 16.728 248.82 15.128C248.82 13.784 248.868 12.424 248.964 11.048C248.1 11.176 247.332 11.4 246.66 11.72C245.988 12.04 245.54 12.392 245.316 12.776C244.484 14.344 244.052 15.88 244.02 17.384C244.02 19.08 244.052 20.328 244.116 21.128C244.148 21.832 244.308 22.488 244.596 23.096C244.884 23.704 245.3 24.072 245.844 24.2ZM260.585 40.232L260.537 38.36C260.505 37.816 260.489 37.208 260.489 36.536L260.537 34.904C260.441 34.552 260.201 31.048 259.817 24.392C259.433 17.736 259.209 13.464 259.145 11.576C257.289 11.512 256.105 11.32 255.593 11C255.241 10.744 255.065 10.456 255.065 10.136C255.065 9.88 255.225 9.656 255.545 9.464C255.897 9.24 256.249 9.128 256.601 9.128C257.497 9.128 258.585 9.192 259.865 9.32C261.081 9.48 262.169 9.56 263.129 9.56H263.513H263.897C264.889 9.56 265.385 9.944 265.385 10.712C265.385 11.096 265.225 11.416 264.905 11.672C264.585 11.896 264.217 12.008 263.801 12.008C263.513 12.008 263.097 11.96 262.553 11.864L261.593 11.672L261.545 11.912L261.497 12.152C261.497 15 261.769 19.544 262.313 25.784C262.825 31.64 263.081 36.184 263.081 39.416C263.081 39.8 262.905 40.136 262.553 40.424C262.233 40.712 261.865 40.856 261.449 40.856L260.585 40.232ZM271.186 40.808C270.546 40.776 270.178 40.44 270.082 39.8L270.226 27.8V24.104V17C270.226 13.864 270.242 11.512 270.274 9.944C270.274 9.752 270.37 9.576 270.562 9.416C270.786 9.256 271.058 9.176 271.378 9.176C271.634 9.176 271.89 9.256 272.146 9.416C272.402 9.576 272.594 9.784 272.722 10.04C273.01 10.552 273.154 11.304 273.154 12.296C273.154 13 273.042 14.104 272.818 15.608C272.722 16.28 272.658 17.016 272.626 17.816C272.594 18.616 272.578 19.144 272.578 19.4C272.514 19.848 272.434 20.568 272.338 21.56C272.274 22.552 272.274 23.032 272.338 23C272.818 22.936 273.41 23.048 274.114 23.336C274.658 23.528 274.978 23.624 275.074 23.624C276.482 23.88 277.554 24.728 278.29 26.168C279.058 27.576 279.506 29.032 279.634 30.536C279.666 30.888 279.682 31.4 279.682 32.072C279.682 33.672 279.538 35.048 279.25 36.2C278.93 38.44 277.586 39.976 275.218 40.808C274.834 40.936 274.338 41 273.73 41C273.282 41 272.786 40.984 272.242 40.952C271.73 40.888 271.378 40.84 271.186 40.808ZM272.77 38.888C273.122 38.984 273.442 39.032 273.73 39.032C274.37 39.032 274.914 38.856 275.362 38.504C275.81 38.12 276.098 37.624 276.226 37.016C276.386 36.28 276.562 35.176 276.754 33.704C276.818 33 276.882 32.44 276.946 32.024C276.978 31.832 276.994 31.544 276.994 31.16C276.994 29.816 276.738 28.584 276.226 27.464C275.714 26.312 274.978 25.672 274.018 25.544C273.346 25.416 272.85 25.336 272.53 25.304L272.77 38.888ZM299.391 41.672C298.687 41.672 297.935 41.56 297.135 41.336C296.367 41.144 295.775 40.92 295.359 40.664C293.215 39.288 292.143 35.528 292.143 29.384V28.088V26.6V25.448C292.143 24.168 292.159 23.032 292.191 22.04C292.223 21.016 292.287 19.912 292.383 18.728C292.479 17.48 292.623 16.472 292.815 15.704C293.007 14.904 293.327 14.008 293.775 13.016C294.159 12.088 294.623 11.368 295.167 10.856C295.743 10.344 296.479 9.912 297.375 9.56C298.175 9.208 299.167 9.032 300.351 9.032C300.831 9.032 301.199 9.144 301.455 9.368C301.711 9.592 301.839 9.88 301.839 10.232C301.839 10.552 301.727 10.84 301.503 11.096C301.311 11.352 301.071 11.496 300.783 11.528H298.527C297.887 11.528 297.327 11.928 296.847 12.728C296.367 13.528 296.031 14.568 295.839 15.848C295.423 18.216 295.215 20.136 295.215 21.608V21.848L295.119 26.456C295.055 27.832 295.023 29.384 295.023 31.112C295.023 32.328 295.071 33.32 295.167 34.088C295.327 35.24 295.599 36.2 295.983 36.968C296.367 37.832 297.023 38.456 297.951 38.84C298.431 39.032 298.959 39.128 299.535 39.128C299.887 39.128 300.239 39 300.591 38.744C301.007 38.744 301.343 38.84 301.599 39.032C301.887 39.192 302.031 39.448 302.031 39.8C302.031 41.048 301.151 41.672 299.391 41.672ZM321.563 41.672C320.859 41.672 320.107 41.56 319.307 41.336C318.539 41.144 317.947 40.92 317.531 40.664C315.387 39.288 314.315 35.528 314.315 29.384V28.088V26.6V25.448C314.315 24.168 314.331 23.032 314.363 22.04C314.395 21.016 314.459 19.912 314.555 18.728C314.651 17.48 314.795 16.472 314.987 15.704C315.179 14.904 315.499 14.008 315.947 13.016C316.331 12.088 316.795 11.368 317.339 10.856C317.915 10.344 318.651 9.912 319.547 9.56C320.347 9.208 321.339 9.032 322.523 9.032C323.003 9.032 323.371 9.144 323.627 9.368C323.883 9.592 324.011 9.88 324.011 10.232C324.011 10.552 323.899 10.84 323.675 11.096C323.483 11.352 323.243 11.496 322.955 11.528H320.699C320.059 11.528 319.499 11.928 319.019 12.728C318.539 13.528 318.203 14.568 318.011 15.848C317.595 18.216 317.387 20.136 317.387 21.608V21.848L317.291 26.456C317.227 27.832 317.195 29.384 317.195 31.112C317.195 32.328 317.243 33.32 317.339 34.088C317.499 35.24 317.771 36.2 318.155 36.968C318.539 37.832 319.195 38.456 320.123 38.84C320.603 39.032 321.131 39.128 321.707 39.128C322.059 39.128 322.411 39 322.763 38.744C323.179 38.744 323.515 38.84 323.771 39.032C324.059 39.192 324.203 39.448 324.203 39.8C324.203 41.048 323.323 41.672 321.563 41.672ZM334.153 41.912C333.321 41.912 332.553 41.64 331.849 41.096C331.145 40.584 330.569 39.88 330.121 38.984C329.193 37.032 328.617 34.904 328.393 32.6C328.105 30.424 327.961 28.328 327.961 26.312C327.961 25.928 327.977 25.608 328.009 25.352V24.488C328.009 24.328 327.993 24.248 327.961 24.248V23.384L328.009 20.024C328.041 19 328.169 17.368 328.393 15.128C328.553 13.592 328.921 12.104 329.497 10.664C329.721 10.024 330.009 9.544 330.361 9.224C330.713 8.872 331.113 8.696 331.561 8.696C332.841 8.696 333.993 8.936 335.017 9.416C336.041 9.864 336.905 10.504 337.609 11.336C338.249 12.136 338.793 13.128 339.241 14.312C339.689 15.464 340.009 16.696 340.201 18.008C340.393 19.352 340.489 20.776 340.489 22.28V22.664C340.489 23.656 340.505 24.552 340.537 25.352L340.585 28.088C340.585 37.304 338.441 41.912 334.153 41.912ZM333.961 39.896C334.537 39.896 335.065 39.672 335.545 39.224C336.025 38.744 336.393 38.104 336.649 37.304C337.257 35.672 337.625 33.912 337.753 32.024C337.913 30.392 337.993 28.984 337.993 27.8C337.993 26.36 337.881 24.472 337.657 22.136C337.465 19.672 337.369 17.832 337.369 16.616V15.752C337.305 14.536 336.889 13.48 336.121 12.584C335.385 11.688 334.473 11.24 333.385 11.24C332.297 11.24 331.577 11.864 331.225 13.112C330.905 14.104 330.745 15.384 330.745 16.952C330.745 17.56 330.761 18.072 330.793 18.488V19.784L330.697 21.992C330.633 22.664 330.601 23.4 330.601 24.2C330.601 25.928 330.649 27.64 330.745 29.336C330.873 31.736 331.193 34.072 331.705 36.344C332.217 38.712 332.969 39.896 333.961 39.896ZM347.706 41C346.682 41.064 346.202 40.552 346.266 39.464L346.314 36.152C346.346 35.448 346.362 34.36 346.362 32.888V29.336C346.362 27.768 346.346 26.584 346.314 25.784C346.282 24.76 346.266 23.24 346.266 21.224V16.712V15.512C346.266 14.648 346.234 13.928 346.17 13.352C346.138 12.776 346.026 12.168 345.834 11.528C345.77 11.272 345.738 11.08 345.738 10.952C345.738 10.408 345.93 9.928 346.314 9.512C346.73 9.096 347.242 8.872 347.85 8.84C348.714 8.808 349.546 8.76 350.346 8.696C351.178 8.632 351.978 8.52 352.746 8.36C353.034 8.232 353.354 8.312 353.706 8.6C354.058 8.856 354.266 9.144 354.33 9.464C354.394 9.72 354.33 9.976 354.138 10.232C353.946 10.456 353.69 10.616 353.37 10.712C352.698 10.904 351.242 11.128 349.002 11.384L348.57 23.24C350.042 23.4 351.178 23.816 351.978 24.488C352.778 25.16 353.322 26.328 353.61 27.992C353.962 29.304 354.138 30.712 354.138 32.216C354.138 33.176 354.042 34.168 353.85 35.192C353.402 37.272 352.33 38.808 350.634 39.8C350.442 39.928 350.154 40.104 349.77 40.328C349.418 40.552 349.066 40.728 348.714 40.856C348.394 40.952 348.058 41 347.706 41ZM348.666 38.408C349.306 38.216 349.882 37.832 350.394 37.256C350.906 36.68 351.242 36.056 351.402 35.384C351.69 34.136 351.834 32.92 351.834 31.736C351.834 30.488 351.69 29.272 351.402 28.088C351.21 27.32 350.906 26.728 350.49 26.312C350.106 25.864 349.498 25.624 348.666 25.592V38.408ZM364.482 41.912C363.65 41.912 362.882 41.64 362.178 41.096C361.474 40.584 360.898 39.88 360.45 38.984C359.522 37.032 358.946 34.904 358.722 32.6C358.434 30.424 358.29 28.328 358.29 26.312C358.29 25.928 358.306 25.608 358.338 25.352V24.488C358.338 24.328 358.322 24.248 358.29 24.248V23.384L358.338 20.024C358.37 19 358.498 17.368 358.722 15.128C358.882 13.592 359.25 12.104 359.826 10.664C360.05 10.024 360.338 9.544 360.69 9.224C361.042 8.872 361.442 8.696 361.89 8.696C363.17 8.696 364.322 8.936 365.346 9.416C366.37 9.864 367.234 10.504 367.938 11.336C368.578 12.136 369.122 13.128 369.57 14.312C370.018 15.464 370.338 16.696 370.53 18.008C370.722 19.352 370.818 20.776 370.818 22.28V22.664C370.818 23.656 370.834 24.552 370.866 25.352L370.914 28.088C370.914 37.304 368.77 41.912 364.482 41.912ZM364.29 39.896C364.866 39.896 365.394 39.672 365.874 39.224C366.354 38.744 366.722 38.104 366.978 37.304C367.586 35.672 367.954 33.912 368.082 32.024C368.242 30.392 368.322 28.984 368.322 27.8C368.322 26.36 368.21 24.472 367.986 22.136C367.794 19.672 367.698 17.832 367.698 16.616V15.752C367.634 14.536 367.218 13.48 366.45 12.584C365.714 11.688 364.802 11.24 363.714 11.24C362.626 11.24 361.906 11.864 361.554 13.112C361.234 14.104 361.074 15.384 361.074 16.952C361.074 17.56 361.09 18.072 361.122 18.488V19.784L361.026 21.992C360.962 22.664 360.93 23.4 360.93 24.2C360.93 25.928 360.978 27.64 361.074 29.336C361.202 31.736 361.522 34.072 362.034 36.344C362.546 38.712 363.298 39.896 364.29 39.896ZM377.698 40.904C377.282 40.776 377.058 40.504 377.026 40.088V39.368C376.962 38.024 376.898 36.008 376.834 33.32C376.706 30.984 376.626 29.192 376.594 27.944C376.498 25.992 376.386 23.064 376.258 19.16C376.226 18.488 376.194 17.56 376.162 16.376C376.13 15.192 376.114 14.296 376.114 13.688C376.082 13.336 376.066 12.84 376.066 12.2C376.066 11.464 376.098 10.92 376.162 10.568C376.29 9.576 376.834 9.112 377.794 9.176C378.69 9.176 379.17 9.688 379.234 10.712V11.288L379.186 23.384V29.096V31.976C379.186 32.424 379.218 32.952 379.282 33.56C379.346 34.136 379.394 34.552 379.426 34.808C379.586 33.88 379.842 32.936 380.194 31.976C380.578 30.984 380.818 30.376 380.914 30.152C381.394 29 381.746 28.056 381.97 27.32C382.738 24.856 383.73 21.832 384.946 18.248C385.202 17.512 385.49 16.616 385.81 15.56C386.674 12.84 387.266 11.08 387.586 10.28C387.874 9.512 388.306 9.032 388.882 8.84C389.17 8.744 389.458 8.696 389.746 8.696C390.194 8.696 390.658 8.84 391.138 9.128V11.432C391.138 13.832 391.186 16.312 391.282 18.872C391.314 19.416 391.33 20.232 391.33 21.32V22.712C391.33 23 391.314 23.384 391.282 23.864C391.282 24.344 391.298 24.904 391.33 25.544L391.474 38.504C391.474 38.984 391.362 39.512 391.138 40.088C391.042 40.344 390.882 40.552 390.658 40.712C390.434 40.84 390.194 40.904 389.938 40.904C389.042 40.904 388.594 40.488 388.594 39.656C388.594 38.696 388.642 37.768 388.738 36.872C388.802 35.656 388.834 34.728 388.834 34.088C388.77 27.752 388.69 23.016 388.594 19.88C388.594 19.4 388.53 18.616 388.402 17.528L388.258 15.8C387.97 16.12 387.81 16.328 387.778 16.424L387.01 18.776C386.498 20.44 386.098 21.672 385.81 22.472L381.634 34.088L379.474 39.992C379.218 40.664 378.834 41 378.322 41C378.226 41 378.018 40.968 377.698 40.904ZM382.546 6.296C381.778 6.296 381.042 5.992 380.338 5.384C379.666 4.776 379.33 4.104 379.33 3.368C379.33 3.048 379.426 2.792 379.618 2.6C379.81 2.408 380.082 2.296 380.434 2.264C380.85 2.232 381.202 2.264 381.49 2.36C381.81 2.424 382.098 2.616 382.354 2.936C382.642 3.288 382.946 3.464 383.266 3.464C383.618 3.464 383.954 3.224 384.274 2.744C384.402 2.52 384.514 2.328 384.61 2.168C384.706 1.976 384.786 1.816 384.85 1.688C385.202 1.08 385.618 0.775997 386.098 0.775997C386.162 0.775997 386.29 0.807998 386.482 0.871999C386.738 0.999999 386.946 1.192 387.106 1.448C387.266 1.672 387.346 1.928 387.346 2.216C387.346 2.408 387.298 2.6 387.202 2.792C387.17 2.888 387.138 2.984 387.106 3.08C387.074 3.144 387.042 3.208 387.01 3.272C386.658 4.392 386.098 5.176 385.33 5.624C384.594 6.072 383.666 6.296 382.546 6.296Z" fill="white"/>
<path d="M0.671875 45.8H394.306V48.2H0.671875V45.8Z" fill="white"/>
</svg>
