<svg width="397" height="86" viewBox="0 0 397 86" fill="none" xmlns="http://www.w3.org/2000/svg">
<path d="M12.4625 81.768C10.2225 81.512 8.6225 80.36 7.6625 78.312C7.2785 77.544 7.0225 76.968 6.8945 76.584C6.2545 75.304 5.7745 74.184 5.4545 73.224C5.1345 72.264 4.9745 71.272 4.9745 70.248L5.0705 69.192C5.1345 68.488 5.3265 67.88 5.6465 67.368C5.9665 66.856 6.3825 66.536 6.8945 66.408C7.5985 66.28 8.3025 66.472 9.0065 66.984C9.7745 67.432 10.2545 68.008 10.4465 68.712C10.7025 69.352 10.9585 70.248 11.2145 71.4C11.5985 73.128 12.1105 74.792 12.7505 76.392C13.1345 77.224 13.7745 77.64 14.6705 77.64C14.9265 77.64 15.3105 77.576 15.8225 77.448C18.1265 76.488 19.6945 75.048 20.5265 73.128C22.0625 69.416 22.8305 65.832 22.8305 62.376C22.8305 61.032 22.6705 59.464 22.3505 57.672C22.2865 57.032 22.2225 56.424 22.1585 55.848C22.0945 55.208 22.0305 54.568 21.9665 53.928C21.6465 51.752 20.9105 50.024 19.7585 48.744C18.6065 47.464 16.9425 46.536 14.7665 45.96C14.5745 45.896 14.0625 45.8 13.2305 45.672C12.3985 45.48 11.6945 45.16 11.1185 44.712C10.6065 44.2 10.3505 43.592 10.3505 42.888C10.2225 41.096 11.6625 39.88 14.6705 39.24C16.3345 38.792 17.6785 37.8 18.7025 36.264C21.1345 34.024 22.3505 30.76 22.3505 26.472C22.3505 23.912 21.9345 21.288 21.1025 18.6C20.7185 17.128 19.8545 16.008 18.5105 15.24C17.1665 14.408 15.7265 13.992 14.1905 13.992C12.0145 13.992 10.1905 14.92 8.7185 16.776C8.4625 17.096 8.0145 17.768 7.3745 18.792C6.2865 20.584 5.5185 21.64 5.0705 21.96C4.5585 22.472 4.0465 22.728 3.5345 22.728C2.7665 22.728 2.1585 22.536 1.7105 22.152C1.3265 21.704 1.1025 21.224 1.0385 20.712C0.9745 20.456 0.9425 20.072 0.9425 19.56C0.9425 17.448 1.5505 15.528 2.7665 13.8C4.0465 12.072 5.6465 10.696 7.5665 9.672C9.5505 8.64799 11.5025 8.13599 13.4225 8.13599C15.6625 8.13599 17.9985 8.744 20.4305 9.96C23.8225 11.624 25.9025 14.28 26.6705 17.928C27.1185 19.912 27.3425 21.928 27.3425 23.976C27.3425 26.792 26.9265 29.672 26.0945 32.616C25.3265 35.56 23.6625 38.376 21.1025 41.064L19.1825 41.928C21.2945 42.376 23.1825 43.912 24.8465 46.536C26.5105 49.16 27.3425 51.784 27.3425 54.408C27.3425 55.496 27.4385 56.584 27.6305 57.672C27.7585 58.824 27.8225 59.624 27.8225 60.072C27.8865 60.712 27.9185 61.64 27.9185 62.856C27.9185 66.504 27.4065 69.864 26.3825 72.936C24.4625 79.016 20.8145 82.056 15.4385 82.056C14.5425 82.056 13.5505 81.96 12.4625 81.768ZM55.9243 81.864C54.4523 81.864 53.3643 81.64 52.6603 81.192C51.9563 80.744 51.6043 79.912 51.6043 78.696C51.6043 76.776 51.2843 73.512 50.6443 68.904L50.2603 66.888L40.7563 65.448C40.3723 66.92 39.8283 69.896 39.1243 74.376C38.7403 77.512 38.1323 79.592 37.3003 80.616C36.8523 81.192 36.2123 81.48 35.3803 81.48C34.6123 81.48 33.9083 81.256 33.2683 80.808C32.6283 80.296 32.3083 79.688 32.3083 78.984L32.5003 78.504L32.5963 78.12C36.8203 61.672 40.0203 45.448 42.1963 29.448C42.1963 29.192 42.2283 28.776 42.2923 28.2C42.3563 27.56 42.4203 26.664 42.4843 25.512C42.6763 23.144 42.8683 21.256 43.0603 19.848C43.3163 18.44 43.7003 17.384 44.2123 16.68H47.4763C48.3723 16.68 49.1403 16.904 49.7803 17.352C50.4203 17.736 50.7403 18.312 50.7403 19.08C50.7403 23.944 51.4123 31.176 52.7563 40.776C54.0363 50.632 54.6763 57.544 54.6763 61.512C54.6763 61.896 54.8363 62.888 55.1562 64.488C55.4763 65.96 55.6363 66.92 55.6363 67.368C55.6363 67.816 55.9563 69.736 56.5963 73.128C57.1723 76.2 57.4603 78.184 57.4603 79.08V79.176C57.4603 80.584 56.9483 81.48 55.9243 81.864ZM49.5883 63.432C49.3963 62.472 49.3003 61.288 49.3003 59.88C49.3003 54.12 48.7883 46.76 47.7643 37.8L46.8043 27.816C44.0523 42.856 42.1643 54.216 41.1403 61.896C42.1003 62.536 44.9163 63.048 49.5883 63.432ZM68.4838 81.96C67.0758 81.96 66.2118 81.352 65.8918 80.136C65.6358 79.368 65.5078 78.28 65.5078 76.872C65.5078 74.12 65.6358 70.728 65.8918 66.696C66.2118 62.856 66.3718 59.432 66.3718 56.424C66.3718 53.032 66.4678 47.944 66.6598 41.16L66.8518 25.992C66.8518 25.416 66.7558 24.552 66.5638 23.4L66.2758 21V20.52C66.2758 19.048 66.4998 17.96 66.9478 17.256C67.3958 16.552 68.2278 16.2 69.4438 16.2C71.1078 16.2 72.9318 16.68 74.9158 17.64C76.8998 18.6 78.3398 19.816 79.2358 21.288C81.0918 24.36 82.0198 28.2 82.0198 32.808C82.0198 36.264 81.7318 39.176 81.1558 41.544C80.5798 43.848 79.5878 45.992 78.1798 47.976C79.9078 49.64 81.0598 51.784 81.6358 54.408C82.2758 56.968 82.5958 60.2 82.5958 64.104C82.5958 68.008 81.9238 71.4 80.5798 74.28C79.0438 77.544 76.8038 79.784 73.8598 81C72.0678 81.64 70.2758 81.96 68.4838 81.96ZM71.5558 45.192C74.8838 45.128 76.5478 41.256 76.5478 33.576C76.5478 25.32 75.2358 21 72.6118 20.616C71.9078 22.088 71.5558 25.544 71.5558 30.984V45.192ZM70.9798 77.064C73.0278 76.616 74.6278 75.4 75.7798 73.416C76.9318 71.432 77.5078 69.16 77.5078 66.6C77.5078 63.912 77.3478 61.544 77.0278 59.496C76.7718 57.896 76.4198 56.584 75.9718 55.56C75.5878 54.472 75.0438 53.48 74.3398 52.584C73.5718 51.624 72.6758 51.048 71.6518 50.856C71.3958 54.504 71.2678 59.336 71.2678 65.352C71.2678 65.736 71.2038 66.952 71.0758 69L70.8838 72.264C70.8838 72.392 70.9158 72.488 70.9798 72.552V72.744V77.064ZM111.987 81.864C110.515 81.864 109.427 81.64 108.723 81.192C108.019 80.744 107.667 79.912 107.667 78.696C107.667 76.776 107.347 73.512 106.707 68.904L106.323 66.888L96.8188 65.448C96.4348 66.92 95.8908 69.896 95.1868 74.376C94.8028 77.512 94.1948 79.592 93.3628 80.616C92.9148 81.192 92.2748 81.48 91.4428 81.48C90.6748 81.48 89.9708 81.256 89.3308 80.808C88.6908 80.296 88.3708 79.688 88.3708 78.984L88.5628 78.504L88.6588 78.12C92.8828 61.672 96.0828 45.448 98.2588 29.448C98.2588 29.192 98.2908 28.776 98.3548 28.2C98.4188 27.56 98.4828 26.664 98.5468 25.512C98.7388 23.144 98.9308 21.256 99.1228 19.848C99.3788 18.44 99.7628 17.384 100.275 16.68H103.539C104.435 16.68 105.203 16.904 105.843 17.352C106.483 17.736 106.803 18.312 106.803 19.08C106.803 23.944 107.475 31.176 108.819 40.776C110.099 50.632 110.739 57.544 110.739 61.512C110.739 61.896 110.899 62.888 111.219 64.488C111.539 65.96 111.699 66.92 111.699 67.368C111.699 67.816 112.019 69.736 112.659 73.128C113.235 76.2 113.523 78.184 113.523 79.08V79.176C113.523 80.584 113.011 81.48 111.987 81.864ZM105.651 63.432C105.459 62.472 105.363 61.288 105.363 59.88C105.363 54.12 104.851 46.76 103.827 37.8L102.867 27.816C100.115 42.856 98.2268 54.216 97.2028 61.896C98.1628 62.536 100.979 63.048 105.651 63.432ZM123.874 81.672C123.042 78.28 122.626 73.576 122.626 67.56L122.818 59.016C122.946 56.456 123.01 53.608 123.01 50.472C122.626 49.576 122.434 48.776 122.434 48.072V47.784C123.074 46.568 123.394 43.816 123.394 39.528L123.49 35.112C123.554 33.704 123.586 32.136 123.586 30.408C123.586 26.632 123.33 23.656 122.818 21.48C123.01 20.584 123.33 19.816 123.778 19.176C124.226 18.472 124.77 18.12 125.41 18.12H129.634C131.426 18.12 132.994 18.536 134.338 19.368C135.682 20.136 136.706 21.256 137.41 22.728C138.69 25.352 139.33 28.456 139.33 32.04C139.33 34.6 139.298 36.616 139.234 38.088C139.106 39.944 138.786 41.64 138.274 43.176C138.082 44.008 137.794 44.712 137.41 45.288C137.09 45.8 136.61 46.44 135.97 47.208C135.074 48.296 133.602 49.32 131.554 50.28C130.722 50.728 129.634 51.144 128.29 51.528V61.8L128.482 67.944L128.674 70.92C128.93 74.504 129.058 77.544 129.058 80.04C129.058 80.808 128.738 81.448 128.098 81.96C127.458 82.536 126.722 82.824 125.89 82.824L123.874 81.672ZM128.386 47.592C132.162 47.016 134.05 41.608 134.05 31.368C134.05 29.512 133.954 28.072 133.762 27.048C133.57 26.28 133.314 25.672 132.994 25.224C132.674 24.712 132.194 24.296 131.554 23.976C130.85 23.592 130.082 23.4 129.25 23.4C129.25 23.336 128.898 23.304 128.194 23.304V28.776C128.194 32.552 128.226 35.912 128.29 38.856C128.29 42.184 128.322 44.36 128.386 45.384V47.4V47.592ZM165.658 81C163.482 81 162.394 75.72 162.394 65.16L162.49 59.688L162.586 55.272V54.984V54.024C162.65 53.512 162.682 52.904 162.682 52.2C162.682 52.072 162.586 51.912 162.394 51.72C162.202 51.528 162.106 51.368 162.106 51.24V51.144C161.786 51.272 161.21 51.336 160.378 51.336C159.546 51.336 158.522 51.208 157.306 50.952C156.922 50.888 155.898 50.728 154.234 50.472V61.512C154.234 63.176 154.33 65.8 154.522 69.384C154.714 72.904 154.81 75.528 154.81 77.256C154.81 78.216 154.554 79.048 154.042 79.752C153.53 80.456 152.858 80.808 152.026 80.808C150.81 80.808 149.946 79.624 149.434 77.256C148.922 74.824 148.666 71.656 148.666 67.752L148.858 59.976C148.922 57.8 148.954 55.496 148.954 53.064V51.432V50.088C148.954 49.064 148.922 48.392 148.858 48.072V47.592L149.146 42.024C149.146 39.592 149.05 35.976 148.858 31.176C148.666 26.376 148.57 22.76 148.57 20.328C148.57 19.56 148.826 18.888 149.338 18.312C149.85 17.736 150.49 17.448 151.258 17.448C153.306 17.448 154.33 19.368 154.33 23.208L154.138 35.112C154.01 38.696 153.946 42.696 153.946 47.112C154.906 47.432 156.634 47.592 159.13 47.592H162.682C162.81 47.208 162.874 46.824 162.874 46.44C162.874 43.368 162.682 38.824 162.298 32.808C161.85 27.176 161.626 22.6 161.626 19.08C161.626 18.376 161.882 17.8 162.394 17.352C162.97 16.84 163.642 16.584 164.41 16.584C164.858 16.584 165.498 16.744 166.33 17.064L167.194 17.448C167.194 26.536 167.514 38.664 168.154 53.832L169.018 78.12C169.018 79.016 168.666 79.72 167.962 80.232C167.322 80.744 166.554 81 165.658 81ZM191.776 82.824C190.112 82.824 188.576 82.28 187.168 81.192C185.76 80.168 184.608 78.76 183.712 76.968C181.856 73.064 180.704 68.808 180.256 64.2C179.68 59.848 179.392 55.656 179.392 51.624C179.392 50.856 179.424 50.216 179.488 49.704V47.976C179.488 47.656 179.456 47.496 179.392 47.496V45.768L179.488 39.048C179.552 37 179.808 33.736 180.256 29.256C180.576 26.184 181.312 23.208 182.464 20.328C182.912 19.048 183.488 18.088 184.192 17.448C184.896 16.744 185.696 16.392 186.592 16.392C189.152 16.392 191.456 16.872 193.504 17.832C195.552 18.728 197.28 20.008 198.688 21.672C199.968 23.272 201.056 25.256 201.952 27.624C202.848 29.928 203.488 32.392 203.872 35.016C204.256 37.704 204.448 40.552 204.448 43.56V44.328C204.448 46.312 204.48 48.104 204.544 49.704L204.64 55.176C204.64 73.608 200.352 82.824 191.776 82.824ZM191.392 78.792C192.544 78.792 193.6 78.344 194.56 77.448C195.52 76.488 196.256 75.208 196.768 73.608C197.984 70.344 198.72 66.824 198.976 63.048C199.296 59.784 199.456 56.968 199.456 54.6C199.456 51.72 199.232 47.944 198.784 43.272C198.4 38.344 198.208 34.664 198.208 32.232V30.504C198.08 28.072 197.248 25.96 195.712 24.168C194.24 22.376 192.416 21.48 190.24 21.48C188.064 21.48 186.624 22.728 185.92 25.224C185.28 27.208 184.96 29.768 184.96 32.904C184.96 34.12 184.992 35.144 185.056 35.976V38.568L184.864 42.984C184.736 44.328 184.672 45.8 184.672 47.4C184.672 50.856 184.768 54.28 184.96 57.672C185.216 62.472 185.856 67.144 186.88 71.688C187.904 76.424 189.408 78.792 191.392 78.792ZM218.209 80.808C217.377 80.552 216.929 80.008 216.865 79.176V77.736C216.737 75.048 216.609 71.016 216.481 65.64C216.225 60.968 216.065 57.384 216.001 54.888C215.809 50.984 215.585 45.128 215.329 37.32C215.265 35.976 215.201 34.12 215.137 31.752C215.073 29.384 215.041 27.592 215.041 26.376C214.977 25.672 214.945 24.68 214.945 23.4C214.945 21.928 215.009 20.84 215.137 20.136C215.393 18.152 216.481 17.224 218.401 17.352C220.193 17.352 221.153 18.376 221.281 20.424V21.576L221.185 45.768V57.192V62.952C221.185 63.848 221.249 64.904 221.377 66.12C221.505 67.272 221.601 68.104 221.665 68.616C221.985 66.76 222.497 64.872 223.201 62.952C223.969 60.968 224.449 59.752 224.641 59.304C225.601 57 226.305 55.112 226.753 53.64C228.289 48.712 230.273 42.664 232.705 35.496C233.217 34.024 233.793 32.232 234.433 30.12C236.161 24.68 237.345 21.16 237.985 19.56C238.561 18.024 239.425 17.064 240.577 16.68C241.153 16.488 241.729 16.392 242.305 16.392C243.201 16.392 244.129 16.68 245.089 17.256V21.864C245.089 26.664 245.185 31.624 245.377 36.744C245.441 37.832 245.473 39.464 245.473 41.64V44.424C245.473 45 245.441 45.768 245.377 46.728C245.377 47.688 245.409 48.808 245.473 50.088L245.761 76.008C245.761 76.968 245.537 78.024 245.089 79.176C244.897 79.688 244.577 80.104 244.129 80.424C243.681 80.68 243.201 80.808 242.689 80.808C240.897 80.808 240.001 79.976 240.001 78.312C240.001 76.392 240.097 74.536 240.289 72.744C240.417 70.312 240.481 68.456 240.481 67.176C240.353 54.504 240.193 45.032 240.001 38.76C240.001 37.8 239.873 36.232 239.617 34.056L239.329 30.6C238.753 31.24 238.433 31.656 238.369 31.848L236.833 36.552C235.809 39.88 235.009 42.344 234.433 43.944L226.081 67.176L221.761 78.984C221.249 80.328 220.481 81 219.457 81C219.265 81 218.849 80.936 218.209 80.808ZM227.905 11.592C226.369 11.592 224.897 10.984 223.489 9.768C222.145 8.552 221.473 7.208 221.473 5.736C221.473 5.096 221.665 4.584 222.049 4.2C222.433 3.816 222.977 3.592 223.681 3.528C224.513 3.464 225.217 3.528 225.793 3.71999C226.433 3.848 227.009 4.232 227.521 4.872C228.097 5.57599 228.705 5.92799 229.345 5.92799C230.049 5.92799 230.721 5.44799 231.361 4.488C231.617 4.04 231.841 3.656 232.033 3.336C232.225 2.952 232.385 2.63199 232.513 2.37599C233.217 1.15999 234.049 0.551994 235.009 0.551994C235.137 0.551994 235.393 0.615995 235.777 0.743998C236.289 0.999998 236.705 1.384 237.025 1.89599C237.345 2.344 237.505 2.856 237.505 3.432C237.505 3.816 237.409 4.2 237.217 4.58399C237.153 4.776 237.089 4.968 237.025 5.16C236.961 5.288 236.897 5.416 236.833 5.544C236.129 7.784 235.009 9.352 233.473 10.248C232.001 11.144 230.145 11.592 227.905 11.592ZM278.792 81.192C278.536 81.128 278.12 81.064 277.544 81C276.968 80.936 276.488 80.776 276.104 80.52C275.144 79.88 274.76 78.792 274.952 77.256L275.048 75.144C275.304 71.688 275.432 69.096 275.432 67.368C275.432 57.32 275.336 47.208 275.144 37.032C275.144 31.784 274.984 26.216 274.664 20.328C274.6 19.304 274.824 18.44 275.336 17.736C275.912 17.032 276.616 16.68 277.448 16.68C278.216 16.68 278.984 17.032 279.752 17.736C280.584 18.44 280.968 19.272 280.904 20.232C280.456 22.152 280.232 25.992 280.232 31.752V39.432C280.232 40.84 280.296 43.08 280.424 46.152C280.616 45.896 281.224 44.712 282.248 42.6C282.376 42.344 282.6 41.96 282.92 41.448C283.24 40.872 283.464 40.296 283.592 39.72C285.704 33.32 287.432 28.392 288.776 24.936C289.352 23.08 290.12 21.512 291.08 20.232C292.04 18.888 293.352 17.96 295.016 17.448C295.592 17.256 296.36 17.32 297.32 17.64C298.344 17.96 299.016 18.344 299.336 18.792C299.72 19.24 299.912 19.784 299.912 20.424C299.912 21.064 299.688 21.64 299.24 22.152C298.856 22.664 298.344 22.984 297.704 23.112C296.104 23.368 294.856 23.944 293.96 24.84C293.064 25.736 292.392 26.696 291.944 27.72C291.56 28.68 291.08 30.152 290.504 32.136L286.664 41.544C286.472 41.992 286.184 42.76 285.8 43.848C285.48 44.936 285.16 45.768 284.84 46.344C284.712 46.536 284.52 46.728 284.264 46.92C284.008 47.112 283.784 47.304 283.592 47.496C284.04 47.176 284.616 47.272 285.32 47.784C286.088 48.296 286.856 49 287.624 49.896C288.136 50.92 288.488 52.04 288.68 53.256C288.936 54.472 289.096 55.176 289.16 55.368C289.288 56.392 289.416 57.16 289.544 57.672C290.312 59.72 290.856 61.608 291.176 63.336C291.496 65 291.72 66.984 291.848 69.288C292.04 71.592 292.68 73.608 293.768 75.336C294.088 75.4 294.44 75.464 294.824 75.528C295.272 75.592 295.752 75.656 296.264 75.72C297.288 75.784 297.96 76.424 298.28 77.64C298.344 77.768 298.376 77.992 298.376 78.312C298.376 79.016 298.056 79.688 297.416 80.328C296.456 81.288 295.24 81.768 293.768 81.768C292.68 81.768 291.624 81.48 290.6 80.904C289.64 80.328 288.936 79.56 288.488 78.6C288.104 77.96 287.784 77.096 287.528 76.008C287.08 73.256 286.696 70.472 286.376 67.656C286.12 63.752 285.832 60.808 285.512 58.824C285.256 56.776 284.648 54.824 283.688 52.968C283.432 52.52 283.176 52.2 282.92 52.008C282.664 51.752 282.312 51.624 281.864 51.624C281.48 51.624 281 51.72 280.424 51.912C280.296 56.52 280.232 61 280.232 65.352C280.232 68.104 280.36 72.296 280.616 77.928C280.68 78.632 280.552 79.208 280.232 79.656C279.976 80.04 279.496 80.552 278.792 81.192ZM317.494 82.824C315.83 82.824 314.294 82.28 312.886 81.192C311.478 80.168 310.326 78.76 309.43 76.968C307.574 73.064 306.422 68.808 305.974 64.2C305.398 59.848 305.11 55.656 305.11 51.624C305.11 50.856 305.142 50.216 305.206 49.704V47.976C305.206 47.656 305.174 47.496 305.11 47.496V45.768L305.206 39.048C305.27 37 305.526 33.736 305.974 29.256C306.294 26.184 307.03 23.208 308.182 20.328C308.63 19.048 309.206 18.088 309.91 17.448C310.614 16.744 311.414 16.392 312.31 16.392C314.87 16.392 317.174 16.872 319.222 17.832C321.27 18.728 322.998 20.008 324.406 21.672C325.686 23.272 326.774 25.256 327.67 27.624C328.566 29.928 329.206 32.392 329.59 35.016C329.974 37.704 330.166 40.552 330.166 43.56V44.328C330.166 46.312 330.198 48.104 330.262 49.704L330.358 55.176C330.358 73.608 326.07 82.824 317.494 82.824ZM317.11 78.792C318.262 78.792 319.318 78.344 320.278 77.448C321.238 76.488 321.974 75.208 322.486 73.608C323.702 70.344 324.438 66.824 324.694 63.048C325.014 59.784 325.174 56.968 325.174 54.6C325.174 51.72 324.95 47.944 324.502 43.272C324.118 38.344 323.926 34.664 323.926 32.232V30.504C323.798 28.072 322.966 25.96 321.43 24.168C319.958 22.376 318.134 21.48 315.958 21.48C313.782 21.48 312.342 22.728 311.638 25.224C310.998 27.208 310.678 29.768 310.678 32.904C310.678 34.12 310.71 35.144 310.774 35.976V38.568L310.582 42.984C310.454 44.328 310.39 45.8 310.39 47.4C310.39 50.856 310.486 54.28 310.678 57.672C310.934 62.472 311.574 67.144 312.598 71.688C313.622 76.424 315.126 78.792 317.11 78.792ZM369.848 52.296C369.848 56.072 369.464 59.4 368.696 62.28C367.992 65.544 366.616 68.904 364.568 72.36C363.8 73.704 362.616 74.952 361.016 76.104C359.48 77.256 358.04 77.832 356.696 77.832C356.696 77.896 356.728 78.216 356.792 78.792C356.856 79.304 356.888 80.008 356.888 80.904C356.888 82.824 356.632 84.232 356.12 85.128C355.672 85.576 355.128 85.8 354.488 85.8C354.296 85.8 354.008 85.736 353.624 85.608C353.176 85.544 352.856 85.352 352.664 85.032C352.536 84.712 352.44 84.264 352.376 83.688C352.312 83.432 352.28 82.824 352.28 81.864C352.28 81.416 352.28 80.776 352.28 79.944C352.344 79.112 352.344 78.504 352.28 78.12L350.456 77.544C349.496 77.288 348.856 77.128 348.536 77.064C346.808 76.808 345.56 75.944 344.792 74.472C344.6 74.216 344.12 73.544 343.352 72.456C342.584 71.304 341.944 70.216 341.432 69.192C340.92 68.104 340.6 67.08 340.472 66.12C339.384 59.08 338.84 52.232 338.84 45.576C338.84 40.776 339.064 36.328 339.512 32.232C340.6 23.784 344.824 19.144 352.184 18.312C352.12 17.544 352.088 16.52 352.088 15.24C352.088 13.64 352.248 12.552 352.568 11.976C352.888 11.336 353.464 11.016 354.296 11.016C355 11.016 355.608 11.208 356.12 11.592C356.632 11.976 356.984 12.488 357.176 13.128C357.304 13.576 357.336 14.536 357.272 16.008C357.272 17.48 357.272 18.312 357.272 18.504C357.4 18.312 357.88 18.312 358.712 18.504C359.608 18.632 360.28 18.824 360.728 19.08L362.552 20.232C364.088 21.128 365.112 21.896 365.624 22.536C366.136 23.112 366.712 24.328 367.352 26.184C368.248 28.36 368.824 30.952 369.08 33.96C369.4 36.904 369.592 40.552 369.656 44.904C369.656 47.016 369.688 48.52 369.752 49.416L369.848 52.296ZM363.608 60.264C364.248 55.656 364.568 52.136 364.568 49.704C364.568 48.232 364.536 46.504 364.472 44.52C364.408 42.536 364.344 41.032 364.28 40.008L364.088 36.744C363.832 32.456 363.288 28.904 362.456 26.088C361.56 23.336 359.768 21.736 357.08 21.288C357.016 22.248 356.984 23.592 356.984 25.32V47.88C356.792 53.896 356.696 59.88 356.696 65.832C356.696 67.432 356.76 70.088 356.888 73.8C359.192 72.392 360.76 70.408 361.592 67.848C362.744 64.52 363.416 61.992 363.608 60.264ZM352.184 74.088C352.568 65.448 352.76 56.84 352.76 48.264C352.76 39.624 352.568 30.984 352.184 22.344C348.728 23.432 346.584 25.416 345.752 28.296C344.664 32.584 344.088 36.52 344.024 40.104L343.928 46.152C343.928 51.976 344.248 56.968 344.888 61.128C345.4 64.84 346.136 67.944 347.096 70.44C348.12 72.936 349.816 74.152 352.184 74.088ZM383.991 82.248C383.159 82.248 382.391 81.96 381.687 81.384C381.047 80.808 380.695 80.104 380.631 79.272V76.776V74.856C380.567 74.28 380.535 73.608 380.535 72.84C380.535 71.496 380.439 69.448 380.247 66.696L380.055 60.552C380.055 57.416 380.151 52.744 380.343 46.536C380.599 40.968 380.727 36.296 380.727 32.52C380.727 31.624 380.631 30.28 380.439 28.488C380.247 26.632 380.151 25.288 380.151 24.456C380.151 19.912 381.495 17.64 384.183 17.64C386.295 17.64 388.727 18.056 391.479 18.888C394.295 19.72 395.703 20.712 395.703 21.864C395.703 22.504 395.415 23.112 394.839 23.688C394.327 24.2 393.687 24.616 392.919 24.936C390.231 23.976 387.799 23.336 385.623 23.016C385.687 23.976 385.719 25.352 385.719 27.144C385.719 29.704 385.687 32.008 385.623 34.056C385.431 37.128 385.335 39.432 385.335 40.968L385.623 42.504L387.159 42.408C387.671 42.344 388.311 42.312 389.079 42.312C392.151 42.312 393.687 43.208 393.687 45C393.687 45.704 393.399 46.312 392.823 46.824C392.247 47.272 391.511 47.496 390.615 47.496C389.463 47.496 388.567 47.432 387.927 47.304H385.527C385.655 48.968 385.719 51.4 385.719 54.6C385.719 57.8 385.687 60.68 385.623 63.24C385.431 67.144 385.335 70.056 385.335 71.976C385.335 75.56 385.399 77.352 385.527 77.352L388.695 77.256C389.783 77.192 391.095 77.16 392.631 77.16C395.063 77.16 396.279 77.928 396.279 79.464C396.279 80.36 395.863 81.032 395.031 81.48C394.263 81.992 393.303 82.248 392.151 82.248H383.991Z" fill="white"/>
</svg>
