<svg width="65" height="65" fill="none" xmlns="http://www.w3.org/2000/svg"><path fill-rule="evenodd" clip-rule="evenodd" d="M42.477 0H22.523C4.312 0 0 4.312 0 22.523v19.954C0 60.688 4.312 65 22.523 65h19.954C60.688 65 65 60.688 65 42.477V22.523C65 4.312 60.642 0 42.477 0zm10 46.376h-4.725c-1.789 0-2.34-1.422-5.55-4.679-2.798-2.706-4.037-3.073-4.725-3.073-.963 0-1.238.275-1.238 1.605v4.266c0 1.147-.367 1.835-3.395 1.835-5 0-10.55-3.027-14.45-8.67-5.871-8.256-7.477-14.449-7.477-15.733 0-.689.276-1.33 1.606-1.33h4.725c1.192 0 1.651.55 2.11 1.834 2.34 6.743 6.238 12.66 7.844 12.66.596 0 .871-.275.871-1.788V26.33c-.183-3.21-1.88-3.486-1.88-4.633 0-.55.458-1.1 1.192-1.1h7.431c1.01 0 1.377.55 1.377 1.742v9.404c0 1.01.458 1.376.734 1.376.596 0 1.1-.367 2.201-1.468 3.395-3.807 5.826-9.678 5.826-9.678.321-.689.872-1.33 2.064-1.33h4.725c1.422 0 1.743.733 1.422 1.742-.596 2.753-6.376 10.918-6.376 10.918-.505.825-.688 1.192 0 2.11.505.688 2.156 2.11 3.257 3.394 2.018 2.294 3.578 4.22 3.99 5.55.46 1.331-.229 2.02-1.559 2.02z" fill="#F8C064"/></svg>